<svg width="18" height="18" viewBox="0 0 18 18" fill="none" xmlns="http://www.w3.org/2000/svg">
<g filter="url(#filter0_i_5856_39476)">
<path d="M8.76668 0.666748C4.16319 0.666748 0.43335 4.39659 0.43335 9.00008C0.43335 13.6036 4.16319 17.3334 8.76668 17.3334C13.3702 17.3334 17.1 13.6036 17.1 9.00008C17.1 4.39659 13.3702 0.666748 8.76668 0.666748ZM11.8745 11.1842L11.2025 12.0243C11.1584 12.0794 11.1039 12.1253 11.042 12.1594C10.9802 12.1935 10.9122 12.215 10.842 12.2228C10.7719 12.2306 10.7008 12.2245 10.633 12.2049C10.5652 12.1852 10.5019 12.1524 10.4468 12.1083L8.19545 10.4376C8.03814 10.3116 7.91117 10.1519 7.82392 9.97029C7.73668 9.78864 7.69139 9.5897 7.69141 9.38819V4.16137C7.69141 4.01878 7.74806 3.88203 7.84888 3.78121C7.94971 3.68038 8.08646 3.62374 8.22905 3.62374H9.30432C9.44691 3.62374 9.58366 3.68038 9.68448 3.78121C9.78531 3.88203 9.84195 4.01878 9.84195 4.16137V9.00008L11.7909 10.4282C11.846 10.4723 11.892 10.5269 11.926 10.5888C11.9601 10.6506 11.9816 10.7186 11.9894 10.7889C11.9972 10.8591 11.991 10.9301 11.9713 10.998C11.9516 11.0658 11.9187 11.1291 11.8745 11.1842Z" fill="url(#paint0_linear_5856_39476)" fill-opacity="0.4"/>
</g>
<defs>
<filter id="filter0_i_5856_39476" x="0.43335" y="0.666748" width="16.6667" height="20.6667" filterUnits="userSpaceOnUse" color-interpolation-filters="sRGB">
<feFlood flood-opacity="0" result="BackgroundImageFix"/>
<feBlend mode="normal" in="SourceGraphic" in2="BackgroundImageFix" result="shape"/>
<feColorMatrix in="SourceAlpha" type="matrix" values="0 0 0 0 0 0 0 0 0 0 0 0 0 0 0 0 0 0 127 0" result="hardAlpha"/>
<feOffset dy="4"/>
<feGaussianBlur stdDeviation="2"/>
<feComposite in2="hardAlpha" operator="arithmetic" k2="-1" k3="1"/>
<feColorMatrix type="matrix" values="0 0 0 0 0 0 0 0 0 0.2 0 0 0 0 0.4 0 0 0 0.1 0"/>
<feBlend mode="normal" in2="shape" result="effect1_innerShadow_5856_39476"/>
</filter>
<linearGradient id="paint0_linear_5856_39476" x1="17.1417" y1="0.666748" x2="0.475069" y2="17.375" gradientUnits="userSpaceOnUse">
<stop stop-color="#96AAB7"/>
<stop offset="1" stop-color="#728896"/>
</linearGradient>
</defs>
</svg>
