<svg width="21" height="28" viewBox="0 0 21 28" fill="none" xmlns="http://www.w3.org/2000/svg">
<g filter="url(#filter0_i_5856_40277)">
<path d="M10.432 14.0052C10.1715 13.1718 10.1768 11.5625 10.3278 11.5625C10.7653 11.5625 10.7236 13.4843 10.432 14.0052ZM10.3434 16.4635C9.94238 17.5156 9.44238 18.7187 8.86426 19.7291C9.81738 19.3645 10.8955 18.8333 12.1403 18.5885C11.4788 18.0885 10.8434 17.3698 10.3434 16.4635ZM5.44238 22.9635C5.44238 23.0052 6.12988 22.6823 7.26009 20.8698C6.91113 21.1979 5.74447 22.1458 5.44238 22.9635ZM13.8747 8.99996H20.958V26.0833C20.958 26.776 20.4007 27.3333 19.708 27.3333H2.20801C1.5153 27.3333 0.958008 26.776 0.958008 26.0833V1.91663C0.958008 1.22392 1.5153 0.666626 2.20801 0.666626H12.6247V7.74996C12.6247 8.43746 13.1872 8.99996 13.8747 8.99996ZM13.458 17.9479C12.4163 17.3125 11.7236 16.4375 11.234 15.1458C11.4684 14.1823 11.8382 12.7187 11.557 11.802C11.3122 10.2708 9.34863 10.4218 9.06738 11.4479C8.80697 12.401 9.04655 13.7448 9.48926 15.4583C8.88509 16.8958 7.99447 18.8229 7.36426 19.927C7.35905 19.927 7.35905 19.9323 7.35384 19.9323C5.94238 20.6562 3.52051 22.25 4.5153 23.4739C4.80697 23.8333 5.34863 23.9948 5.63509 23.9948C6.56738 23.9948 7.49447 23.0573 8.81738 20.776C10.1611 20.3333 11.6351 19.7812 12.932 19.5677C14.0622 20.1823 15.3851 20.5833 16.2653 20.5833C17.7861 20.5833 17.8903 18.9166 17.2913 18.3229C16.5674 17.6145 14.4632 17.8177 13.458 17.9479ZM20.5934 6.13538L15.4893 1.03121C15.2549 0.796834 14.9372 0.666626 14.6038 0.666626H14.2913V7.33329H20.958V7.01558C20.958 6.68746 20.8278 6.36975 20.5934 6.13538ZM16.734 19.4323C16.9476 19.2916 16.6038 18.8125 14.5049 18.9635C16.4372 19.7864 16.734 19.4323 16.734 19.4323Z" fill="url(#paint0_linear_5856_40277)" fill-opacity="0.4"/>
</g>
<defs>
<filter id="filter0_i_5856_40277" x="0.958008" y="0.666626" width="20" height="30.6666" filterUnits="userSpaceOnUse" color-interpolation-filters="sRGB">
<feFlood flood-opacity="0" result="BackgroundImageFix"/>
<feBlend mode="normal" in="SourceGraphic" in2="BackgroundImageFix" result="shape"/>
<feColorMatrix in="SourceAlpha" type="matrix" values="0 0 0 0 0 0 0 0 0 0 0 0 0 0 0 0 0 0 127 0" result="hardAlpha"/>
<feOffset dy="4"/>
<feGaussianBlur stdDeviation="2"/>
<feComposite in2="hardAlpha" operator="arithmetic" k2="-1" k3="1"/>
<feColorMatrix type="matrix" values="0 0 0 0 0 0 0 0 0 0.2 0 0 0 0 0.4 0 0 0 0.1 0"/>
<feBlend mode="normal" in2="shape" result="effect1_innerShadow_5856_40277"/>
</filter>
<linearGradient id="paint0_linear_5856_40277" x1="21.008" y1="0.666626" x2="-4.60982" y2="19.928" gradientUnits="userSpaceOnUse">
<stop stop-color="#96AAB7"/>
<stop offset="1" stop-color="#728896"/>
</linearGradient>
</defs>
</svg>
