<svg width="28" height="28" viewBox="0 0 28 28" fill="none" xmlns="http://www.w3.org/2000/svg">
<g filter="url(#filter0_i_5065_9127)">
<path fill-rule="evenodd" clip-rule="evenodd" d="M13.9998 0.666626C6.63656 0.666626 0.666504 6.63883 0.666504 14C0.666504 21.3654 6.63656 27.3333 13.9998 27.3333C21.3631 27.3333 27.3332 21.3654 27.3332 14C27.3332 6.63883 21.3631 0.666626 13.9998 0.666626ZM16.8012 7.96245C16.8012 6.5104 15.6241 5.33329 14.172 5.33329C12.72 5.33329 11.5429 6.5104 11.5429 7.96245C11.5429 9.4145 12.72 10.5916 14.172 10.5916C15.6241 10.5916 16.8012 9.4145 16.8012 7.96245ZM16.9264 21.9846C17.3412 21.9846 17.6776 21.6483 17.6776 21.2334V19.7311C17.6776 19.3162 17.3412 18.9799 16.9264 18.9799H16.1752V12.72C16.1752 12.3051 15.8389 11.9688 15.424 11.9688H11.4177C11.0028 11.9688 10.6665 12.3051 10.6665 12.72V14.2224C10.6665 14.6372 11.0028 14.9735 11.4177 14.9735H12.1689V18.9799H11.4177C11.0028 18.9799 10.6665 19.3162 10.6665 19.7311V21.2334C10.6665 21.6483 11.0028 21.9846 11.4177 21.9846H16.9264Z" fill="url(#paint0_linear_5065_9127)" fill-opacity="0.4"/>
</g>
<defs>
<filter id="filter0_i_5065_9127" x="0.666504" y="0.666626" width="26.6665" height="30.6666" filterUnits="userSpaceOnUse" color-interpolation-filters="sRGB">
<feFlood flood-opacity="0" result="BackgroundImageFix"/>
<feBlend mode="normal" in="SourceGraphic" in2="BackgroundImageFix" result="shape"/>
<feColorMatrix in="SourceAlpha" type="matrix" values="0 0 0 0 0 0 0 0 0 0 0 0 0 0 0 0 0 0 127 0" result="hardAlpha"/>
<feOffset dy="4"/>
<feGaussianBlur stdDeviation="2"/>
<feComposite in2="hardAlpha" operator="arithmetic" k2="-1" k3="1"/>
<feColorMatrix type="matrix" values="0 0 0 0 0 0 0 0 0 0.2 0 0 0 0 0.4 0 0 0 0.1 0"/>
<feBlend mode="normal" in2="shape" result="effect1_innerShadow_5065_9127"/>
</filter>
<linearGradient id="paint0_linear_5065_9127" x1="27.3998" y1="0.666626" x2="0.733255" y2="27.3999" gradientUnits="userSpaceOnUse">
<stop stop-color="#96AAB7"/>
<stop offset="1" stop-color="#728896"/>
</linearGradient>
</defs>
</svg>
