<svg width="28" height="28" viewBox="0 0 28 28" fill="none" xmlns="http://www.w3.org/2000/svg">
<g filter="url(#filter0_i_5065_8971)">
<path fill-rule="evenodd" clip-rule="evenodd" d="M13.9998 0.666656C6.63656 0.666656 0.666504 6.63886 0.666504 14C0.666504 21.3654 6.63656 27.3333 13.9998 27.3333C21.3631 27.3333 27.3332 21.3654 27.3332 14C27.3332 6.63886 21.3631 0.666656 13.9998 0.666656ZM16.8012 7.96248C16.8012 6.51044 15.6241 5.33332 14.172 5.33332C12.72 5.33332 11.5429 6.51044 11.5429 7.96248C11.5429 9.41453 12.72 10.5916 14.172 10.5916C15.6241 10.5916 16.8012 9.41453 16.8012 7.96248ZM16.9264 21.9847C17.3412 21.9847 17.6776 21.6483 17.6776 21.2335V19.7311C17.6776 19.3162 17.3412 18.9799 16.9264 18.9799H16.1752V12.72C16.1752 12.3052 15.8389 11.9688 15.424 11.9688H11.4177C11.0028 11.9688 10.6665 12.3052 10.6665 12.72V14.2224C10.6665 14.6372 11.0028 14.9736 11.4177 14.9736H12.1689V18.9799H11.4177C11.0028 18.9799 10.6665 19.3162 10.6665 19.7311V21.2335C10.6665 21.6483 11.0028 21.9847 11.4177 21.9847H16.9264Z" fill="#FFDF21"/>
</g>
<defs>
<filter id="filter0_i_5065_8971" x="0.666504" y="0.666656" width="26.6665" height="30.6667" filterUnits="userSpaceOnUse" color-interpolation-filters="sRGB">
<feFlood flood-opacity="0" result="BackgroundImageFix"/>
<feBlend mode="normal" in="SourceGraphic" in2="BackgroundImageFix" result="shape"/>
<feColorMatrix in="SourceAlpha" type="matrix" values="0 0 0 0 0 0 0 0 0 0 0 0 0 0 0 0 0 0 127 0" result="hardAlpha"/>
<feOffset dy="4"/>
<feGaussianBlur stdDeviation="2"/>
<feComposite in2="hardAlpha" operator="arithmetic" k2="-1" k3="1"/>
<feColorMatrix type="matrix" values="0 0 0 0 0 0 0 0 0 0.2 0 0 0 0 0.4 0 0 0 0.1 0"/>
<feBlend mode="normal" in2="shape" result="effect1_innerShadow_5065_8971"/>
</filter>
</defs>
</svg>
