<svg width="18" height="18" viewBox="0 0 18 18" fill="none" xmlns="http://www.w3.org/2000/svg">
<g filter="url(#filter0_i_5742_38622)">
<path fill-rule="evenodd" clip-rule="evenodd" d="M9.19173 0.666748C4.58968 0.666748 0.858398 4.39938 0.858398 9.00008C0.858398 13.6035 4.58968 17.3334 9.19173 17.3334C13.7938 17.3334 17.5251 13.6035 17.5251 9.00008C17.5251 4.39938 13.7938 0.666748 9.19173 0.666748ZM10.9426 5.22664C10.9426 4.31911 10.2069 3.58341 9.29937 3.58341C8.39184 3.58341 7.65614 4.31911 7.65614 5.22664C7.65614 6.13417 8.39184 6.86986 9.29937 6.86986C10.2069 6.86986 10.9426 6.13417 10.9426 5.22664ZM11.0208 13.9905C11.2801 13.9905 11.4903 13.7803 11.4903 13.521V12.582C11.4903 12.3227 11.2801 12.1125 11.0208 12.1125H10.5513V8.20009C10.5513 7.94081 10.3411 7.7306 10.0819 7.7306H7.57789C7.31861 7.7306 7.1084 7.94081 7.1084 8.20009V9.13908C7.1084 9.39835 7.31861 9.60857 7.57789 9.60857H8.04738V12.1125H7.57789C7.31861 12.1125 7.1084 12.3227 7.1084 12.582V13.521C7.1084 13.7803 7.31861 13.9905 7.57789 13.9905H11.0208Z" fill="url(#paint0_linear_5742_38622)" fill-opacity="0.4"/>
</g>
<defs>
<filter id="filter0_i_5742_38622" x="0.858398" y="0.666748" width="16.667" height="20.6667" filterUnits="userSpaceOnUse" color-interpolation-filters="sRGB">
<feFlood flood-opacity="0" result="BackgroundImageFix"/>
<feBlend mode="normal" in="SourceGraphic" in2="BackgroundImageFix" result="shape"/>
<feColorMatrix in="SourceAlpha" type="matrix" values="0 0 0 0 0 0 0 0 0 0 0 0 0 0 0 0 0 0 127 0" result="hardAlpha"/>
<feOffset dy="4"/>
<feGaussianBlur stdDeviation="2"/>
<feComposite in2="hardAlpha" operator="arithmetic" k2="-1" k3="1"/>
<feColorMatrix type="matrix" values="0 0 0 0 0 0 0 0 0 0.2 0 0 0 0 0.4 0 0 0 0.1 0"/>
<feBlend mode="normal" in2="shape" result="effect1_innerShadow_5742_38622"/>
</filter>
<linearGradient id="paint0_linear_5742_38622" x1="17.5667" y1="0.666748" x2="0.900118" y2="17.375" gradientUnits="userSpaceOnUse">
<stop stop-color="#96AAB7"/>
<stop offset="1" stop-color="#728896"/>
</linearGradient>
</defs>
</svg>
