<svg width="48" height="48" viewBox="0 0 48 48" fill="none" xmlns="http://www.w3.org/2000/svg">
<path fill-rule="evenodd" clip-rule="evenodd" d="M23.9401 48.0002C37.1619 48.0002 47.8803 37.2551 47.8803 24.0002C47.8803 10.7454 37.1619 0.000244141 23.9401 0.000244141C10.7184 0.000244141 0 10.7454 0 24.0002C0 37.2551 10.7184 48.0002 23.9401 48.0002ZM18.2252 10.0933C19.718 10.0251 20.1946 10.009 23.9956 10.009C27.7966 10.009 28.2732 10.0251 29.7659 10.0933C31.2556 10.1612 32.273 10.3978 33.1632 10.7438C34.0836 11.1014 34.8641 11.58 35.6422 12.358C36.4202 13.1361 36.8988 13.9166 37.2564 14.837C37.6024 15.7272 37.839 16.7446 37.9069 18.2343C37.9751 19.727 37.9912 20.2036 37.9912 24.0046C37.9912 27.8056 37.9751 28.2822 37.9069 29.775C37.839 31.2646 37.6024 32.282 37.2564 33.1723C36.8988 34.0926 36.4202 34.8731 35.6422 35.6512C34.8641 36.4293 34.0836 36.9078 33.1632 37.2655C32.273 37.6114 31.2556 37.848 29.7659 37.916C28.2732 37.9841 27.7966 38.0002 23.9956 38.0002C20.1946 38.0002 19.718 37.9841 18.2252 37.916C16.7356 37.848 15.7182 37.6114 14.8279 37.2655C13.9076 36.9078 13.1271 36.4293 12.349 35.6512C11.5709 34.8731 11.0924 34.0926 10.7348 33.1723C10.3888 32.282 10.1522 31.2646 10.0842 29.775C10.0161 28.2822 10 27.8056 10 24.0046C10 20.2036 10.0161 19.727 10.0842 18.2343C10.1522 16.7446 10.3888 15.7272 10.7348 14.837C11.0924 13.9166 11.5709 13.1361 12.349 12.358C13.1271 11.58 13.9076 11.1014 14.8279 10.7438C15.7182 10.3978 16.7356 10.1612 18.2252 10.0933ZM29.651 12.6124C28.1752 12.545 27.7326 12.5308 23.9956 12.5308C20.2586 12.5308 19.8159 12.545 18.3402 12.6124C16.9756 12.6746 16.2346 12.9026 15.7414 13.0943C15.0881 13.3481 14.6219 13.6514 14.1322 14.1412C13.6424 14.6309 13.3391 15.0971 13.0852 15.7504C12.8936 16.2436 12.6656 16.9846 12.6033 18.3492C12.536 19.825 12.5217 20.2676 12.5217 24.0046C12.5217 27.7416 12.536 28.1843 12.6033 29.66C12.6656 31.0246 12.8936 31.7656 13.0852 32.2588C13.3391 32.9121 13.6424 33.3783 14.1322 33.868C14.6219 34.3578 15.0881 34.6611 15.7414 34.915C16.2346 35.1066 16.9756 35.3346 18.3402 35.3969C19.8158 35.4642 20.2583 35.4785 23.9956 35.4785C27.7328 35.4785 28.1754 35.4642 29.651 35.3969C31.0156 35.3346 31.7566 35.1066 32.2498 34.915C32.9031 34.6611 33.3693 34.3578 33.859 33.868C34.3488 33.3783 34.6521 32.9121 34.9059 32.2588C35.0976 31.7656 35.3256 31.0246 35.3878 29.66C35.4552 28.1843 35.4694 27.7416 35.4694 24.0046C35.4694 20.2676 35.4552 19.825 35.3878 18.3492C35.3256 16.9846 35.0976 16.2436 34.9059 15.7504C34.6521 15.0971 34.3488 14.6309 33.859 14.1412C33.3693 13.6514 32.9031 13.3481 32.2498 13.0943C31.7566 12.9026 31.0156 12.6746 29.651 12.6124ZM19.4561 24.0003C19.4561 26.5098 21.4905 28.5441 24 28.5441C26.5095 28.5441 28.5439 26.5098 28.5439 24.0003C28.5439 21.4907 26.5095 19.4564 24 19.4564C21.4905 19.4564 19.4561 21.4907 19.4561 24.0003ZM17 24.0003C17 20.1342 20.134 17.0002 24 17.0002C27.866 17.0002 31 20.1342 31 24.0003C31 27.8663 27.866 31.0002 24 31.0002C20.134 31.0002 17 27.8663 17 24.0003ZM33 16.5003C33 17.3287 32.3284 18.0002 31.5 18.0002C30.6716 18.0002 30 17.3287 30 16.5003C30 15.6718 30.6716 15.0002 31.5 15.0002C32.3284 15.0002 33 15.6718 33 16.5003Z" fill="white"/>
</svg>
