<svg width="96" height="96" viewBox="0 0 96 96" fill="none" xmlns="http://www.w3.org/2000/svg">
<path d="M88.0003 8H48.7793V88H88.0003V8Z" fill="#ED2232"/>
<path d="M69.5983 56.4332C69.2371 56.4332 67.6113 56.4332 67.2501 56.4332C67.3855 56.0493 68.0855 53.9494 68.0855 53.9494C68.221 53.5655 68.3113 53.2043 68.4016 52.8204C68.4919 53.1591 68.7177 53.972 68.7177 53.972C68.7177 53.972 69.3725 55.8009 69.5983 56.4332ZM67.5887 50.9463L64.2695 60.7007H65.8953C65.8953 60.7007 66.7985 57.9686 66.8662 57.7428C67.092 57.7428 69.7338 57.7428 69.9596 57.7428C70.0274 57.9686 70.9531 60.7007 70.9531 60.7007H72.624L69.3048 50.9463H67.5887Z" fill="#FFDF21"/>
<path d="M64.9238 33.3789V39.0916C64.9238 41.8011 66.1883 43.2914 68.4688 43.2914C70.8397 43.2914 72.1945 41.756 72.1945 39.0464V33.3789H70.6139V39.1367C70.6139 40.9657 69.8914 41.9592 68.4914 41.9592C67.1818 41.9592 66.4818 40.9657 66.4818 39.1367V33.3789H64.9238Z" fill="#FFDF21"/>
<path d="M69.6198 21.2994C69.2585 21.2994 67.6328 21.2994 67.2715 21.2994C67.407 20.9155 68.107 18.8156 68.107 18.8156C68.2425 18.4317 68.3328 18.0479 68.4231 17.6415C68.5134 17.9802 68.7618 18.8156 68.7618 18.8156C68.7618 18.8382 69.394 20.6671 69.6198 21.2994ZM67.6102 15.8125L64.291 25.5669H65.9168C65.9168 25.5669 66.8199 22.8348 66.8877 22.609C67.1135 22.609 69.7553 22.609 69.9811 22.609C70.0488 22.8348 70.9972 25.5669 70.9972 25.5669H72.6681L69.3489 15.8125H67.6102Z" fill="#FFDF21"/>
<path d="M54.8071 21.1639C55.1233 21.1639 58.6909 21.1639 59.007 21.1639C59.007 21.48 59.007 25.5669 59.007 25.5669H60.5876V15.8125H59.007C59.007 15.8125 59.007 19.4253 59.007 19.7414C58.6909 19.7414 55.1233 19.7414 54.8071 19.7414C54.8071 19.4253 54.8071 15.8125 54.8071 15.8125H53.2266V25.5669H54.8071C54.8071 25.5669 54.8071 21.48 54.8071 21.1639Z" fill="#FFDF21"/>
<path d="M47.221 8H8V88H47.221V8Z" fill="#ED2232"/>
<path d="M40.2898 74.0005C39.9285 74.0005 38.3027 74.0005 37.9415 74.0005C38.0769 73.6167 38.7769 71.5168 38.7769 71.5168C38.9124 71.1329 39.0027 70.7491 39.093 70.3426C39.1834 70.6587 39.4317 71.5168 39.4317 71.5168C39.4317 71.5394 40.064 73.3683 40.2898 74.0005ZM38.2802 68.5137L34.9609 78.2681H36.5867C36.5867 78.2681 37.4899 75.536 37.5576 75.3102C37.7834 75.3102 40.4252 75.3102 40.651 75.3102C40.7188 75.536 41.6445 78.2681 41.6445 78.2681H43.3154L39.9962 68.5137H38.2802Z" fill="#FFDF21"/>
<path d="M30.0142 71.314C30.0142 72.285 29.2465 72.9172 28.0724 72.9172C28.0724 72.9172 27.2595 72.9172 27.0111 72.9172C27.0111 72.6237 27.0111 70.0496 27.0111 69.8012C27.1918 69.7786 27.5079 69.7335 28.0272 69.7335C28.9304 69.7335 30.0142 70.0044 30.0142 71.314ZM31.1884 75.4687C30.9626 74.5204 30.5562 73.9107 29.9691 73.5946C30.9626 73.143 31.5948 72.2624 31.5948 71.1786C31.5948 70.4108 31.3013 69.7109 30.8045 69.2593C30.1949 68.6948 29.2691 68.4238 27.9595 68.4238C27.1466 68.4238 26.2434 68.5141 25.5886 68.627L25.4531 68.6496V78.246H27.0111C27.0111 78.246 27.0111 74.4978 27.0111 74.1591C27.2595 74.1591 27.9821 74.1591 27.9821 74.1591C28.9756 74.1591 29.4497 74.6107 29.7207 75.8526C29.9917 77.1622 30.1949 77.8847 30.3529 78.1557L30.3981 78.246H32.0464L31.9109 77.9976C31.7077 77.6589 31.4819 76.688 31.1884 75.4687Z" fill="#FFDF21"/>
<path d="M18.206 73.2559C17.8673 73.2559 17.5963 73.2333 17.3705 73.1882C17.3705 72.9172 17.3705 70.0721 17.3705 69.8238C17.5737 69.8012 17.8898 69.756 18.3414 69.756C19.1091 69.756 20.3962 69.9818 20.3962 71.4495C20.3736 72.6011 19.5833 73.2559 18.206 73.2559ZM21.0736 69.2593C20.4639 68.7174 19.5382 68.4238 18.3189 68.4238C17.4382 68.4238 16.648 68.4916 15.948 68.627L15.8125 68.6496V78.246H17.3705C17.3705 78.246 17.3705 74.8591 17.3705 74.4978C17.6415 74.5429 17.9124 74.5655 18.1834 74.5655C19.4253 74.5655 20.5091 74.1817 21.1865 73.4817C21.7058 72.9172 21.9768 72.2172 21.9768 71.3592C21.9542 70.5012 21.6381 69.756 21.0736 69.2593Z" fill="#FFDF21"/>
<path d="M57.2929 74.2937C57.2929 74.2937 58.8961 74.2937 59.1896 74.2937C59.1896 74.5872 59.1896 76.5968 59.1896 76.8001C58.8735 76.913 58.3542 77.0033 57.7445 77.0033C55.622 77.0033 54.2898 75.6259 54.2898 73.3905C54.2898 71.1551 55.6672 69.7778 57.9026 69.7778C58.7154 69.7778 59.3477 69.8907 59.9122 70.1616L60.0928 70.2519L60.4992 68.9197L60.3638 68.852C59.9347 68.6488 59.0315 68.4004 57.9251 68.4004C54.764 68.4004 52.6641 70.4326 52.6641 73.4357C52.6641 74.9034 53.1608 76.2356 54.0188 77.071C54.922 77.9516 56.1188 78.3581 57.6542 78.3581C59.1219 78.3581 60.296 77.9516 60.6121 77.8387L60.725 77.7936V72.9841H57.2703V74.2937" fill="#FFDF21"/>
<path d="M40.2898 56.4332C39.9285 56.4332 38.3027 56.4332 37.9415 56.4332C38.0769 56.0493 38.7769 53.9494 38.7769 53.9494C38.9124 53.5655 39.0027 53.1817 39.093 52.7978C39.1834 53.1139 39.4317 53.972 39.4317 53.972C39.4317 53.972 40.064 55.8009 40.2898 56.4332ZM38.2802 50.9463L34.9609 60.7007H36.5867C36.5867 60.7007 37.4899 57.9686 37.5576 57.7428C37.7834 57.7428 40.4252 57.7428 40.651 57.7428C40.7188 57.9686 41.6445 60.7007 41.6445 60.7007H43.3154L39.9736 50.9463H38.2802Z" fill="#FFDF21"/>
<path d="M30.0142 53.7467C30.0142 54.7176 29.2465 55.3498 28.0724 55.3498C28.0724 55.3498 27.2595 55.3498 27.0111 55.3498C27.0111 55.0563 27.0111 52.4822 27.0111 52.2338C27.1918 52.2112 27.5079 52.1661 28.0272 52.1661C28.9304 52.1661 30.0142 52.437 30.0142 53.7467ZM31.1884 57.9013C30.9626 56.953 30.5562 56.3433 29.9691 56.0272C30.9626 55.5756 31.5948 54.695 31.5948 53.6112C31.5948 52.8435 31.3013 52.1435 30.8045 51.6919C30.1723 51.1274 29.2691 50.8564 27.9595 50.8564C27.1466 50.8564 26.2434 50.9468 25.5886 51.0597L25.4531 51.0822V60.6786H27.0111C27.0111 60.6786 27.0111 56.9304 27.0111 56.5917C27.2595 56.5917 27.9821 56.5917 27.9821 56.5917C28.9756 56.5917 29.4497 57.0433 29.7207 58.2852C30.0142 59.6174 30.1949 60.3174 30.3529 60.5883L30.3981 60.6786H32.0464L31.9109 60.4303C31.7077 60.0916 31.4819 59.1206 31.1884 57.9013Z" fill="#FFDF21"/>
<path d="M18.206 55.6885C17.8673 55.6885 17.5963 55.6659 17.3705 55.6208C17.3705 55.3724 17.3705 52.5273 17.3705 52.2564C17.5737 52.2338 17.8898 52.1886 18.3414 52.1886C19.1091 52.1886 20.3962 52.4144 20.3962 53.8596C20.3736 55.0337 19.5833 55.6885 18.206 55.6885ZM21.0736 51.6919C20.4639 51.15 19.5382 50.8564 18.3189 50.8564C17.4382 50.8564 16.648 50.9242 15.948 51.0597L15.8125 51.0822V60.6786H17.3705C17.3705 60.6786 17.3705 57.2917 17.3705 56.9304C17.6415 56.9756 17.9124 56.9981 18.1834 56.9981C19.4253 56.9981 20.5091 56.6143 21.1865 55.9143C21.7058 55.3498 21.9768 54.6498 21.9768 53.7918C21.9542 52.9564 21.6381 52.2112 21.0736 51.6919Z" fill="#FFDF21"/>
<path d="M57.2929 56.7273C57.2929 56.7273 58.8961 56.7273 59.1896 56.7273C59.1896 57.0208 59.1896 59.0304 59.1896 59.2336C58.8735 59.3465 58.3542 59.4369 57.7445 59.4369C55.622 59.4369 54.2898 58.0595 54.2898 55.8241C54.2898 53.5887 55.6672 52.2113 57.9026 52.2113C58.7154 52.2113 59.3477 52.3242 59.9122 52.5952L60.0928 52.6855L60.4992 51.3533L60.3638 51.2856C59.9347 51.0824 59.0315 50.834 57.9251 50.834C54.764 50.834 52.6641 52.8662 52.6641 55.8693C52.6641 57.3369 53.1608 58.6691 54.0188 59.5046C54.922 60.3852 56.1188 60.7916 57.6542 60.7916C59.1219 60.7916 60.296 60.3852 60.6121 60.2723L60.725 60.2271V55.4177H57.2703V56.7273" fill="#FFDF21"/>
<path d="M40.2898 38.8658C39.9285 38.8658 38.3027 38.8658 37.9415 38.8658C38.0769 38.4819 38.7769 36.382 38.7769 36.382C38.9124 35.9982 39.0027 35.6143 39.093 35.2304C39.1834 35.5466 39.4317 36.4046 39.4317 36.4046C39.4317 36.4046 40.064 38.2335 40.2898 38.8658ZM38.2802 33.3789L34.9609 43.1333H36.5867C36.5867 43.1333 37.4899 40.4012 37.5576 40.1754C37.7834 40.1754 40.4252 40.1754 40.651 40.1754C40.7188 40.4012 41.6445 43.1333 41.6445 43.1333H43.3154L39.9736 33.3789H38.2802Z" fill="#FFDF21"/>
<path d="M78.3579 41.7571C78.3579 41.4635 78.3579 39.0024 78.3579 38.7088C78.674 38.7088 81.9933 38.7088 81.9933 38.7088V37.354C81.9933 37.354 78.674 37.354 78.3579 37.354C78.3579 37.0605 78.3579 35.0283 78.3579 34.7348C78.674 34.7348 82.2191 34.7348 82.2191 34.7348V33.3574H76.7773V43.1119H82.4223V41.7345C82.4223 41.7571 78.674 41.7571 78.3579 41.7571Z" fill="#FFDF21"/>
<path d="M30.0153 36.1793C30.0153 37.1502 29.2476 37.7824 28.0735 37.7824C28.0735 37.7824 27.2606 37.7824 27.0122 37.7824C27.0122 37.4889 27.0122 34.9148 27.0122 34.6664C27.1929 34.6438 27.509 34.5987 28.0283 34.5987C28.9315 34.5987 30.0153 34.8696 30.0153 36.1793ZM31.1895 40.3339C30.9637 39.3856 30.5572 38.7759 29.9702 38.4598C30.9637 38.0082 31.5733 37.1276 31.5733 36.0438C31.5733 35.2761 31.2798 34.5761 30.783 34.1245C30.1508 33.56 29.2476 33.2891 27.938 33.2891C27.1251 33.2891 26.2219 33.3794 25.5671 33.4923L25.4316 33.5149V43.1112H26.9896C26.9896 43.1112 26.9896 39.363 26.9896 39.0243C27.238 39.0243 27.9606 39.0243 27.9606 39.0243C28.9541 39.0243 29.4282 39.4759 29.6992 40.7178C29.9927 42.05 30.1734 42.75 30.3314 43.0209L30.3766 43.1112H32.0249L31.8894 42.8629C31.7088 42.5242 31.483 41.5532 31.1895 40.3339Z" fill="#FFDF21"/>
<path d="M18.206 38.1211C17.8673 38.1211 17.5963 38.0985 17.3705 38.0534C17.3705 37.805 17.3705 34.96 17.3705 34.689C17.5511 34.6664 17.8898 34.6213 18.3414 34.6213C19.1091 34.6213 20.3962 34.8471 20.3962 36.2922C20.3736 37.4663 19.5833 38.1211 18.206 38.1211ZM21.0736 34.1245C20.4639 33.5826 19.5382 33.2891 18.3189 33.2891C17.4382 33.2891 16.648 33.3568 15.948 33.4923L15.8125 33.5149V43.1112H17.3705C17.3705 43.1112 17.3705 39.7243 17.3705 39.363C17.6189 39.4082 17.9124 39.4307 18.1834 39.4307C19.4253 39.4307 20.5091 39.0469 21.1865 38.3469C21.7058 37.7824 21.9768 37.0825 21.9768 36.2244C21.9542 35.389 21.6381 34.6438 21.0736 34.1245Z" fill="#FFDF21"/>
<path d="M57.2929 39.1599C57.2929 39.1599 58.8961 39.1599 59.1896 39.1599C59.1896 39.4534 59.1896 41.463 59.1896 41.6663C58.8735 41.7792 58.3542 41.8695 57.7445 41.8695C55.622 41.8695 54.2898 40.4695 54.2898 38.2567C54.2898 36.0213 55.6672 34.644 57.9026 34.644C58.7154 34.644 59.3477 34.7569 59.9122 35.0278L60.0928 35.1181L60.4992 33.7859L60.3638 33.7182C59.9347 33.515 59.0315 33.2666 57.9251 33.2666C54.764 33.2666 52.6641 35.2988 52.6641 38.3019C52.6641 39.7696 53.1608 41.1018 54.0188 41.9372C54.922 42.8178 56.1188 43.2243 57.6542 43.2243C59.1219 43.2243 60.296 42.8178 60.6121 42.7049L60.725 42.6598V37.8503H57.2703V39.1599" fill="#FFDF21"/>
<path d="M40.2898 21.2994C39.9285 21.2994 38.3027 21.2994 37.9415 21.2994C38.0769 20.9155 38.7769 18.8156 38.7769 18.8156C38.9124 18.4317 39.0027 18.0479 39.093 17.6415C39.1834 17.9576 39.4317 18.8156 39.4317 18.8156C39.4317 18.8156 40.064 20.6671 40.2898 21.2994ZM38.2802 15.8125L34.9609 25.5669H36.5867C36.5867 25.5669 37.4899 22.8348 37.5576 22.609C37.7834 22.609 40.4252 22.609 40.651 22.609C40.7188 22.8348 41.6445 25.5669 41.6445 25.5669H43.3154L39.9736 15.8125H38.2802Z" fill="#FFDF21"/>
<path d="M30.0142 18.6119C30.0142 19.5828 29.2465 20.215 28.0724 20.215C28.0724 20.215 27.2595 20.215 27.0111 20.215C27.0111 19.9215 27.0111 17.3474 27.0111 17.099C27.1918 17.0765 27.5079 17.0313 28.0272 17.0313C28.9304 17.0313 30.0142 17.3023 30.0142 18.6119ZM31.1884 22.7666C30.9626 21.8182 30.5562 21.2086 29.9691 20.8924C30.9626 20.4408 31.5948 19.5602 31.5948 18.4764C31.5948 17.7087 31.3013 17.0087 30.8045 16.5571C30.1723 15.9926 29.2691 15.7217 27.9595 15.7217C27.1466 15.7217 26.2434 15.812 25.5886 15.9249L25.4531 15.9475V25.5439H27.0111C27.0111 25.5439 27.0111 21.7956 27.0111 21.4569C27.2595 21.4569 27.9821 21.4569 27.9821 21.4569C28.9756 21.4569 29.4497 21.9085 29.7207 23.1504C30.0142 24.4826 30.1949 25.1826 30.3529 25.4535L30.3981 25.5439H32.0464L31.9109 25.2955C31.7077 24.9568 31.4819 23.9859 31.1884 22.7666Z" fill="#FFDF21"/>
<path d="M18.206 20.5537C17.8673 20.5537 17.5963 20.5312 17.3705 20.486C17.3705 20.2376 17.3705 17.37 17.3705 17.1216C17.5511 17.099 17.8898 17.0539 18.3414 17.0539C19.1091 17.0539 20.3962 17.2797 20.3962 18.7474C20.3736 19.8989 19.5833 20.5537 18.206 20.5537ZM21.0736 16.5571C20.4639 16.0152 19.5382 15.7217 18.3189 15.7217C17.4382 15.7217 16.648 15.7894 15.948 15.9249L15.8125 15.9475V25.5439H17.3705C17.3705 25.5439 17.3705 22.1569 17.3705 21.7956C17.6189 21.8408 17.9124 21.8408 18.1834 21.8408C19.4253 21.8408 20.5091 21.4569 21.1865 20.757C21.7058 20.1925 21.9768 19.4925 21.9768 18.6345C21.9542 17.8216 21.6381 17.0765 21.0736 16.5571Z" fill="#FFDF21"/>
</svg>
