<svg width="18" height="14" viewBox="0 0 18 14" fill="none" xmlns="http://www.w3.org/2000/svg">
<g filter="url(#filter0_i_5742_38628)">
<path d="M17.6099 5.0839C17.6099 5.0839 17.9414 5.07707 17.9414 5.24455C17.9414 5.41203 17.9414 11.8176 17.9414 11.8176C17.9414 12.7234 17.2065 13.4583 16.3008 13.4583H2.08203C1.17627 13.4583 0.441406 12.7234 0.441406 11.8176C0.441406 11.8176 0.441406 5.41886 0.441406 5.24797C0.441406 5.07707 0.63623 4.98136 0.772949 5.08732C1.53857 5.68205 2.55371 6.43742 6.04004 8.97013C6.76123 9.4965 7.97803 10.6039 9.19141 10.5971C10.4116 10.6073 11.6523 9.47599 12.3462 8.97013C15.8325 6.43742 17.6099 5.0839 17.6099 5.0839ZM9.19141 9.08325C9.98438 9.09692 11.126 8.08521 11.7002 7.66821C16.2358 4.37671 16.5811 4.0896 17.627 3.26929C17.8252 3.11548 17.9414 2.87622 17.9414 2.62329V1.97388C17.9414 1.06812 17.2065 0.333252 16.3008 0.333252H2.08203C1.17627 0.333252 0.441406 1.06812 0.441406 1.97388V2.62329C0.441406 2.87622 0.557617 3.11206 0.755859 3.26929C1.80176 4.08618 2.14697 4.37671 6.68262 7.66821C7.25684 8.08521 8.39844 9.09692 9.19141 9.08325Z" fill="url(#paint0_linear_5742_38628)" fill-opacity="0.4"/>
</g>
<defs>
<filter id="filter0_i_5742_38628" x="0.441406" y="0.333252" width="17.5" height="17.125" filterUnits="userSpaceOnUse" color-interpolation-filters="sRGB">
<feFlood flood-opacity="0" result="BackgroundImageFix"/>
<feBlend mode="normal" in="SourceGraphic" in2="BackgroundImageFix" result="shape"/>
<feColorMatrix in="SourceAlpha" type="matrix" values="0 0 0 0 0 0 0 0 0 0 0 0 0 0 0 0 0 0 127 0" result="hardAlpha"/>
<feOffset dy="4"/>
<feGaussianBlur stdDeviation="2"/>
<feComposite in2="hardAlpha" operator="arithmetic" k2="-1" k3="1"/>
<feColorMatrix type="matrix" values="0 0 0 0 0 0 0 0 0 0.2 0 0 0 0 0.4 0 0 0 0.1 0"/>
<feBlend mode="normal" in2="shape" result="effect1_innerShadow_5742_38628"/>
</filter>
<linearGradient id="paint0_linear_5742_38628" x1="17.9852" y1="0.333252" x2="5.394" y2="17.1634" gradientUnits="userSpaceOnUse">
<stop stop-color="#96AAB7"/>
<stop offset="1" stop-color="#728896"/>
</linearGradient>
</defs>
</svg>
