<svg width="18" height="14" viewBox="0 0 18 14" fill="none" xmlns="http://www.w3.org/2000/svg">
<g filter="url(#filter0_i_5856_39468)">
<path d="M15.5375 13.3937H1.99585C1.13289 13.3937 0.43335 12.6861 0.43335 11.8132V2.33046C0.43335 1.45759 1.13289 0.75 1.99585 0.75H15.5375C16.4005 0.75 17.1 1.45759 17.1 2.33046V11.8132C17.1 12.6861 16.4005 13.3937 15.5375 13.3937ZM4.07918 2.59387C3.07241 2.59387 2.25627 3.4194 2.25627 4.43774C2.25627 5.45608 3.07241 6.28161 4.07918 6.28161C5.08595 6.28161 5.9021 5.45608 5.9021 4.43774C5.9021 3.4194 5.08595 2.59387 4.07918 2.59387ZM2.51668 11.2864H15.0167V7.59866L12.1679 4.71712C12.0153 4.56283 11.768 4.56283 11.6154 4.71712L7.20418 9.17912L5.39705 7.35122C5.24452 7.19693 4.99718 7.19693 4.84461 7.35122L2.51668 9.70594V11.2864Z" fill="url(#paint0_linear_5856_39468)" fill-opacity="0.4"/>
</g>
<defs>
<filter id="filter0_i_5856_39468" x="0.43335" y="0.75" width="16.6667" height="16.6438" filterUnits="userSpaceOnUse" color-interpolation-filters="sRGB">
<feFlood flood-opacity="0" result="BackgroundImageFix"/>
<feBlend mode="normal" in="SourceGraphic" in2="BackgroundImageFix" result="shape"/>
<feColorMatrix in="SourceAlpha" type="matrix" values="0 0 0 0 0 0 0 0 0 0 0 0 0 0 0 0 0 0 127 0" result="hardAlpha"/>
<feOffset dy="4"/>
<feGaussianBlur stdDeviation="2"/>
<feComposite in2="hardAlpha" operator="arithmetic" k2="-1" k3="1"/>
<feColorMatrix type="matrix" values="0 0 0 0 0 0 0 0 0 0.2 0 0 0 0 0.4 0 0 0 0.1 0"/>
<feBlend mode="normal" in2="shape" result="effect1_innerShadow_5856_39468"/>
</filter>
<linearGradient id="paint0_linear_5856_39468" x1="17.1417" y1="0.75" x2="4.97381" y2="16.8296" gradientUnits="userSpaceOnUse">
<stop stop-color="#96AAB7"/>
<stop offset="1" stop-color="#728896"/>
</linearGradient>
</defs>
</svg>
