<svg width="290" height="96" viewBox="0 0 290 96" fill="none" xmlns="http://www.w3.org/2000/svg">
<path d="M88.0003 8H48.7793V88H88.0003V8Z" fill="#ED2232"/>
<path d="M69.5983 56.4332C69.2371 56.4332 67.6113 56.4332 67.2501 56.4332C67.3855 56.0493 68.0855 53.9494 68.0855 53.9494C68.221 53.5655 68.3113 53.2043 68.4016 52.8204C68.4919 53.1591 68.7177 53.972 68.7177 53.972C68.7177 53.972 69.3725 55.8009 69.5983 56.4332ZM67.5887 50.9463L64.2695 60.7007H65.8953C65.8953 60.7007 66.7985 57.9686 66.8662 57.7428C67.092 57.7428 69.7338 57.7428 69.9596 57.7428C70.0274 57.9686 70.9531 60.7007 70.9531 60.7007H72.624L69.3048 50.9463H67.5887Z" fill="#FFDF21"/>
<path d="M64.9238 33.3789V39.0916C64.9238 41.8011 66.1883 43.2914 68.4688 43.2914C70.8397 43.2914 72.1945 41.756 72.1945 39.0464V33.3789H70.6139V39.1367C70.6139 40.9657 69.8914 41.9592 68.4914 41.9592C67.1818 41.9592 66.4818 40.9657 66.4818 39.1367V33.3789H64.9238Z" fill="#FFDF21"/>
<path d="M69.6198 21.2994C69.2585 21.2994 67.6328 21.2994 67.2715 21.2994C67.407 20.9155 68.107 18.8156 68.107 18.8156C68.2425 18.4317 68.3328 18.0479 68.4231 17.6415C68.5134 17.9802 68.7618 18.8156 68.7618 18.8156C68.7618 18.8382 69.394 20.6671 69.6198 21.2994ZM67.6102 15.8125L64.291 25.5669H65.9168C65.9168 25.5669 66.8199 22.8348 66.8877 22.609C67.1135 22.609 69.7553 22.609 69.9811 22.609C70.0488 22.8348 70.9972 25.5669 70.9972 25.5669H72.6681L69.3489 15.8125H67.6102Z" fill="#FFDF21"/>
<path d="M54.8071 21.1639C55.1233 21.1639 58.6909 21.1639 59.007 21.1639C59.007 21.48 59.007 25.5669 59.007 25.5669H60.5876V15.8125H59.007C59.007 15.8125 59.007 19.4253 59.007 19.7414C58.6909 19.7414 55.1233 19.7414 54.8071 19.7414C54.8071 19.4253 54.8071 15.8125 54.8071 15.8125H53.2266V25.5669H54.8071C54.8071 25.5669 54.8071 21.48 54.8071 21.1639Z" fill="#FFDF21"/>
<path d="M47.221 8H8V88H47.221V8Z" fill="#ED2232"/>
<path d="M40.2898 74.0005C39.9285 74.0005 38.3027 74.0005 37.9415 74.0005C38.0769 73.6167 38.7769 71.5168 38.7769 71.5168C38.9124 71.1329 39.0027 70.7491 39.093 70.3426C39.1834 70.6587 39.4317 71.5168 39.4317 71.5168C39.4317 71.5394 40.064 73.3683 40.2898 74.0005ZM38.2802 68.5137L34.9609 78.2681H36.5867C36.5867 78.2681 37.4899 75.536 37.5576 75.3102C37.7834 75.3102 40.4252 75.3102 40.651 75.3102C40.7188 75.536 41.6445 78.2681 41.6445 78.2681H43.3154L39.9962 68.5137H38.2802Z" fill="#FFDF21"/>
<path d="M30.0142 71.314C30.0142 72.285 29.2465 72.9172 28.0724 72.9172C28.0724 72.9172 27.2595 72.9172 27.0111 72.9172C27.0111 72.6237 27.0111 70.0496 27.0111 69.8012C27.1918 69.7786 27.5079 69.7335 28.0272 69.7335C28.9304 69.7335 30.0142 70.0044 30.0142 71.314ZM31.1884 75.4687C30.9626 74.5204 30.5562 73.9107 29.9691 73.5946C30.9626 73.143 31.5948 72.2624 31.5948 71.1786C31.5948 70.4108 31.3013 69.7109 30.8045 69.2593C30.1949 68.6948 29.2691 68.4238 27.9595 68.4238C27.1466 68.4238 26.2434 68.5141 25.5886 68.627L25.4531 68.6496V78.246H27.0111C27.0111 78.246 27.0111 74.4978 27.0111 74.1591C27.2595 74.1591 27.9821 74.1591 27.9821 74.1591C28.9756 74.1591 29.4497 74.6107 29.7207 75.8526C29.9917 77.1622 30.1949 77.8847 30.3529 78.1557L30.3981 78.246H32.0464L31.9109 77.9976C31.7077 77.6589 31.4819 76.688 31.1884 75.4687Z" fill="#FFDF21"/>
<path d="M18.206 73.2559C17.8673 73.2559 17.5963 73.2333 17.3705 73.1882C17.3705 72.9172 17.3705 70.0721 17.3705 69.8238C17.5737 69.8012 17.8898 69.756 18.3414 69.756C19.1091 69.756 20.3962 69.9818 20.3962 71.4495C20.3736 72.6011 19.5833 73.2559 18.206 73.2559ZM21.0736 69.2593C20.4639 68.7174 19.5382 68.4238 18.3189 68.4238C17.4382 68.4238 16.648 68.4916 15.948 68.627L15.8125 68.6496V78.246H17.3705C17.3705 78.246 17.3705 74.8591 17.3705 74.4978C17.6415 74.5429 17.9124 74.5655 18.1834 74.5655C19.4253 74.5655 20.5091 74.1817 21.1865 73.4817C21.7058 72.9172 21.9768 72.2172 21.9768 71.3592C21.9542 70.5012 21.6381 69.756 21.0736 69.2593Z" fill="#FFDF21"/>
<path d="M57.2929 74.2937C57.2929 74.2937 58.8961 74.2937 59.1896 74.2937C59.1896 74.5872 59.1896 76.5968 59.1896 76.8001C58.8735 76.913 58.3542 77.0033 57.7445 77.0033C55.622 77.0033 54.2898 75.6259 54.2898 73.3905C54.2898 71.1551 55.6672 69.7778 57.9026 69.7778C58.7154 69.7778 59.3477 69.8907 59.9122 70.1616L60.0928 70.2519L60.4992 68.9197L60.3638 68.852C59.9347 68.6488 59.0315 68.4004 57.9251 68.4004C54.764 68.4004 52.6641 70.4326 52.6641 73.4357C52.6641 74.9034 53.1608 76.2356 54.0188 77.071C54.922 77.9516 56.1188 78.3581 57.6542 78.3581C59.1219 78.3581 60.296 77.9516 60.6121 77.8387L60.725 77.7936V72.9841H57.2703V74.2937" fill="#FFDF21"/>
<path d="M40.2898 56.4332C39.9285 56.4332 38.3027 56.4332 37.9415 56.4332C38.0769 56.0493 38.7769 53.9494 38.7769 53.9494C38.9124 53.5655 39.0027 53.1817 39.093 52.7978C39.1834 53.1139 39.4317 53.972 39.4317 53.972C39.4317 53.972 40.064 55.8009 40.2898 56.4332ZM38.2802 50.9463L34.9609 60.7007H36.5867C36.5867 60.7007 37.4899 57.9686 37.5576 57.7428C37.7834 57.7428 40.4252 57.7428 40.651 57.7428C40.7188 57.9686 41.6445 60.7007 41.6445 60.7007H43.3154L39.9736 50.9463H38.2802Z" fill="#FFDF21"/>
<path d="M30.0142 53.7467C30.0142 54.7176 29.2465 55.3498 28.0724 55.3498C28.0724 55.3498 27.2595 55.3498 27.0111 55.3498C27.0111 55.0563 27.0111 52.4822 27.0111 52.2338C27.1918 52.2112 27.5079 52.1661 28.0272 52.1661C28.9304 52.1661 30.0142 52.437 30.0142 53.7467ZM31.1884 57.9013C30.9626 56.953 30.5562 56.3433 29.9691 56.0272C30.9626 55.5756 31.5948 54.695 31.5948 53.6112C31.5948 52.8435 31.3013 52.1435 30.8045 51.6919C30.1723 51.1274 29.2691 50.8564 27.9595 50.8564C27.1466 50.8564 26.2434 50.9468 25.5886 51.0597L25.4531 51.0822V60.6786H27.0111C27.0111 60.6786 27.0111 56.9304 27.0111 56.5917C27.2595 56.5917 27.9821 56.5917 27.9821 56.5917C28.9756 56.5917 29.4497 57.0433 29.7207 58.2852C30.0142 59.6174 30.1949 60.3174 30.3529 60.5883L30.3981 60.6786H32.0464L31.9109 60.4303C31.7077 60.0916 31.4819 59.1206 31.1884 57.9013Z" fill="#FFDF21"/>
<path d="M18.206 55.6885C17.8673 55.6885 17.5963 55.6659 17.3705 55.6208C17.3705 55.3724 17.3705 52.5273 17.3705 52.2564C17.5737 52.2338 17.8898 52.1886 18.3414 52.1886C19.1091 52.1886 20.3962 52.4144 20.3962 53.8596C20.3736 55.0337 19.5833 55.6885 18.206 55.6885ZM21.0736 51.6919C20.4639 51.15 19.5382 50.8564 18.3189 50.8564C17.4382 50.8564 16.648 50.9242 15.948 51.0597L15.8125 51.0822V60.6786H17.3705C17.3705 60.6786 17.3705 57.2917 17.3705 56.9304C17.6415 56.9756 17.9124 56.9981 18.1834 56.9981C19.4253 56.9981 20.5091 56.6143 21.1865 55.9143C21.7058 55.3498 21.9768 54.6498 21.9768 53.7918C21.9542 52.9564 21.6381 52.2112 21.0736 51.6919Z" fill="#FFDF21"/>
<path d="M57.2929 56.7273C57.2929 56.7273 58.8961 56.7273 59.1896 56.7273C59.1896 57.0208 59.1896 59.0304 59.1896 59.2336C58.8735 59.3465 58.3542 59.4369 57.7445 59.4369C55.622 59.4369 54.2898 58.0595 54.2898 55.8241C54.2898 53.5887 55.6672 52.2113 57.9026 52.2113C58.7154 52.2113 59.3477 52.3242 59.9122 52.5952L60.0928 52.6855L60.4992 51.3533L60.3638 51.2856C59.9347 51.0824 59.0315 50.834 57.9251 50.834C54.764 50.834 52.6641 52.8662 52.6641 55.8693C52.6641 57.3369 53.1608 58.6691 54.0188 59.5046C54.922 60.3852 56.1188 60.7916 57.6542 60.7916C59.1219 60.7916 60.296 60.3852 60.6121 60.2723L60.725 60.2271V55.4177H57.2703V56.7273" fill="#FFDF21"/>
<path d="M40.2898 38.8658C39.9285 38.8658 38.3027 38.8658 37.9415 38.8658C38.0769 38.4819 38.7769 36.382 38.7769 36.382C38.9124 35.9982 39.0027 35.6143 39.093 35.2304C39.1834 35.5466 39.4317 36.4046 39.4317 36.4046C39.4317 36.4046 40.064 38.2335 40.2898 38.8658ZM38.2802 33.3789L34.9609 43.1333H36.5867C36.5867 43.1333 37.4899 40.4012 37.5576 40.1754C37.7834 40.1754 40.4252 40.1754 40.651 40.1754C40.7188 40.4012 41.6445 43.1333 41.6445 43.1333H43.3154L39.9736 33.3789H38.2802Z" fill="#FFDF21"/>
<path d="M78.3579 41.7571C78.3579 41.4635 78.3579 39.0024 78.3579 38.7088C78.674 38.7088 81.9933 38.7088 81.9933 38.7088V37.354C81.9933 37.354 78.674 37.354 78.3579 37.354C78.3579 37.0605 78.3579 35.0283 78.3579 34.7348C78.674 34.7348 82.2191 34.7348 82.2191 34.7348V33.3574H76.7773V43.1119H82.4223V41.7345C82.4223 41.7571 78.674 41.7571 78.3579 41.7571Z" fill="#FFDF21"/>
<path d="M30.0153 36.1793C30.0153 37.1502 29.2476 37.7824 28.0735 37.7824C28.0735 37.7824 27.2606 37.7824 27.0122 37.7824C27.0122 37.4889 27.0122 34.9148 27.0122 34.6664C27.1929 34.6438 27.509 34.5987 28.0283 34.5987C28.9315 34.5987 30.0153 34.8696 30.0153 36.1793ZM31.1895 40.3339C30.9637 39.3856 30.5572 38.7759 29.9702 38.4598C30.9637 38.0082 31.5733 37.1276 31.5733 36.0438C31.5733 35.2761 31.2798 34.5761 30.783 34.1245C30.1508 33.56 29.2476 33.2891 27.938 33.2891C27.1251 33.2891 26.2219 33.3794 25.5671 33.4923L25.4316 33.5149V43.1112H26.9896C26.9896 43.1112 26.9896 39.363 26.9896 39.0243C27.238 39.0243 27.9606 39.0243 27.9606 39.0243C28.9541 39.0243 29.4282 39.4759 29.6992 40.7178C29.9927 42.05 30.1734 42.75 30.3314 43.0209L30.3766 43.1112H32.0249L31.8894 42.8629C31.7088 42.5242 31.483 41.5532 31.1895 40.3339Z" fill="#FFDF21"/>
<path d="M18.206 38.1211C17.8673 38.1211 17.5963 38.0985 17.3705 38.0534C17.3705 37.805 17.3705 34.96 17.3705 34.689C17.5511 34.6664 17.8898 34.6213 18.3414 34.6213C19.1091 34.6213 20.3962 34.8471 20.3962 36.2922C20.3736 37.4663 19.5833 38.1211 18.206 38.1211ZM21.0736 34.1245C20.4639 33.5826 19.5382 33.2891 18.3189 33.2891C17.4382 33.2891 16.648 33.3568 15.948 33.4923L15.8125 33.5149V43.1112H17.3705C17.3705 43.1112 17.3705 39.7243 17.3705 39.363C17.6189 39.4082 17.9124 39.4307 18.1834 39.4307C19.4253 39.4307 20.5091 39.0469 21.1865 38.3469C21.7058 37.7824 21.9768 37.0825 21.9768 36.2244C21.9542 35.389 21.6381 34.6438 21.0736 34.1245Z" fill="#FFDF21"/>
<path d="M57.2929 39.1599C57.2929 39.1599 58.8961 39.1599 59.1896 39.1599C59.1896 39.4534 59.1896 41.463 59.1896 41.6663C58.8735 41.7792 58.3542 41.8695 57.7445 41.8695C55.622 41.8695 54.2898 40.4695 54.2898 38.2567C54.2898 36.0213 55.6672 34.644 57.9026 34.644C58.7154 34.644 59.3477 34.7569 59.9122 35.0278L60.0928 35.1181L60.4992 33.7859L60.3638 33.7182C59.9347 33.515 59.0315 33.2666 57.9251 33.2666C54.764 33.2666 52.6641 35.2988 52.6641 38.3019C52.6641 39.7696 53.1608 41.1018 54.0188 41.9372C54.922 42.8178 56.1188 43.2243 57.6542 43.2243C59.1219 43.2243 60.296 42.8178 60.6121 42.7049L60.725 42.6598V37.8503H57.2703V39.1599" fill="#FFDF21"/>
<path d="M40.2898 21.2994C39.9285 21.2994 38.3027 21.2994 37.9415 21.2994C38.0769 20.9155 38.7769 18.8156 38.7769 18.8156C38.9124 18.4317 39.0027 18.0479 39.093 17.6415C39.1834 17.9576 39.4317 18.8156 39.4317 18.8156C39.4317 18.8156 40.064 20.6671 40.2898 21.2994ZM38.2802 15.8125L34.9609 25.5669H36.5867C36.5867 25.5669 37.4899 22.8348 37.5576 22.609C37.7834 22.609 40.4252 22.609 40.651 22.609C40.7188 22.8348 41.6445 25.5669 41.6445 25.5669H43.3154L39.9736 15.8125H38.2802Z" fill="#FFDF21"/>
<path d="M30.0142 18.6119C30.0142 19.5828 29.2465 20.215 28.0724 20.215C28.0724 20.215 27.2595 20.215 27.0111 20.215C27.0111 19.9215 27.0111 17.3474 27.0111 17.099C27.1918 17.0765 27.5079 17.0313 28.0272 17.0313C28.9304 17.0313 30.0142 17.3023 30.0142 18.6119ZM31.1884 22.7666C30.9626 21.8182 30.5562 21.2086 29.9691 20.8924C30.9626 20.4408 31.5948 19.5602 31.5948 18.4764C31.5948 17.7087 31.3013 17.0087 30.8045 16.5571C30.1723 15.9926 29.2691 15.7217 27.9595 15.7217C27.1466 15.7217 26.2434 15.812 25.5886 15.9249L25.4531 15.9475V25.5439H27.0111C27.0111 25.5439 27.0111 21.7956 27.0111 21.4569C27.2595 21.4569 27.9821 21.4569 27.9821 21.4569C28.9756 21.4569 29.4497 21.9085 29.7207 23.1504C30.0142 24.4826 30.1949 25.1826 30.3529 25.4535L30.3981 25.5439H32.0464L31.9109 25.2955C31.7077 24.9568 31.4819 23.9859 31.1884 22.7666Z" fill="#FFDF21"/>
<path d="M18.206 20.5537C17.8673 20.5537 17.5963 20.5312 17.3705 20.486C17.3705 20.2376 17.3705 17.37 17.3705 17.1216C17.5511 17.099 17.8898 17.0539 18.3414 17.0539C19.1091 17.0539 20.3962 17.2797 20.3962 18.7474C20.3736 19.8989 19.5833 20.5537 18.206 20.5537ZM21.0736 16.5571C20.4639 16.0152 19.5382 15.7217 18.3189 15.7217C17.4382 15.7217 16.648 15.7894 15.948 15.9249L15.8125 15.9475V25.5439H17.3705C17.3705 25.5439 17.3705 22.1569 17.3705 21.7956C17.6189 21.8408 17.9124 21.8408 18.1834 21.8408C19.4253 21.8408 20.5091 21.4569 21.1865 20.757C21.7058 20.1925 21.9768 19.4925 21.9768 18.6345C21.9542 17.8216 21.6381 17.0765 21.0736 16.5571Z" fill="#FFDF21"/>
<path opacity="0.64" d="M104.994 26H106.702V22.444C106.926 22.486 107.22 22.5 107.542 22.5C108.76 22.5 109.838 22.178 110.524 21.492C111.056 20.988 111.336 20.246 111.336 19.35C111.336 18.468 110.972 17.726 110.412 17.264C109.81 16.76 108.886 16.494 107.626 16.494C106.464 16.494 105.61 16.578 104.994 16.69V26ZM106.702 17.894C106.884 17.852 107.22 17.81 107.696 17.81C108.886 17.81 109.614 18.37 109.614 19.42C109.614 20.526 108.83 21.156 107.542 21.156C107.192 21.156 106.912 21.142 106.702 21.086V17.894ZM117.804 16.41C115.144 16.41 113.324 18.454 113.324 21.352C113.324 24.124 115.004 26.154 117.664 26.154C120.268 26.154 122.186 24.348 122.186 21.184C122.186 18.496 120.562 16.41 117.804 16.41ZM117.762 17.796C119.484 17.796 120.366 19.476 120.366 21.254C120.366 23.228 119.428 24.768 117.762 24.768C116.11 24.768 115.144 23.242 115.144 21.324C115.144 19.378 116.054 17.796 117.762 17.796ZM124.672 26H126.38V22.122H127.248C128.228 22.15 128.676 22.542 128.942 23.774C129.208 24.95 129.432 25.72 129.572 26H131.35C131.154 25.636 130.902 24.544 130.608 23.368C130.37 22.458 129.964 21.8 129.292 21.548V21.506C130.174 21.184 131 20.358 131 19.14C131 18.342 130.706 17.684 130.188 17.25C129.558 16.718 128.634 16.494 127.276 16.494C126.282 16.494 125.316 16.578 124.672 16.69V26ZM126.38 17.88C126.548 17.838 126.898 17.796 127.444 17.796C128.564 17.796 129.292 18.272 129.292 19.308C129.292 20.246 128.564 20.862 127.402 20.862H126.38V17.88ZM135.517 26H137.239V18.006H139.955V16.564H132.829V18.006H135.517V26ZM145.927 23.326L146.781 26H148.629L145.563 16.564H143.365L140.341 26H142.119L142.931 23.326H145.927ZM143.211 22.024L143.939 19.7C144.107 19.14 144.247 18.482 144.387 17.936H144.415C144.555 18.482 144.709 19.126 144.891 19.7L145.633 22.024H143.211ZM144.835 14.38L143.603 16.06H144.989L146.739 14.38H144.835ZM150.941 26H156.541V24.558H152.663V16.564H150.941V26ZM104.994 34.564V44H106.716V39.842H110.706V44H112.428V34.564H110.706V38.344H106.716V34.564H104.994ZM115.4 44H121V42.558H117.122V34.564H115.4V44ZM128.245 41.326L129.099 44H130.947L127.881 34.564H125.683L122.659 44H124.437L125.249 41.326H128.245ZM125.529 40.024L126.257 37.7C126.425 37.14 126.565 36.482 126.705 35.936H126.733C126.873 36.482 127.027 37.126 127.209 37.7L127.951 40.024H125.529ZM136.597 44L139.859 34.564H138.025L136.653 38.876C136.275 40.024 135.939 41.172 135.687 42.292H135.659C135.407 41.144 135.099 40.038 134.735 38.848L133.447 34.564H131.571L134.623 44H136.597ZM143.457 44V40.626C143.457 39.072 143.443 37.826 143.373 36.608L143.415 36.594C143.877 37.658 144.507 38.82 145.109 39.856L147.573 44H149.351V34.564H147.755V37.854C147.755 39.296 147.797 40.514 147.909 41.774H147.881C147.447 40.752 146.901 39.66 146.271 38.61L143.835 34.564H141.875V44H143.457ZM152.336 34.564V44H154.058V34.564H152.336ZM153.526 32.38L152.294 34.06H153.68L155.43 32.38H153.526ZM157.027 34.564V44H158.749V39.842H162.739V44H164.461V34.564H162.739V38.344H158.749V34.564H157.027ZM171.423 34.41C168.763 34.41 166.943 36.454 166.943 39.352C166.943 42.124 168.623 44.154 171.283 44.154C173.887 44.154 175.805 42.348 175.805 39.184C175.805 36.496 174.181 34.41 171.423 34.41ZM171.381 35.796C173.103 35.796 173.985 37.476 173.985 39.254C173.985 41.228 173.047 42.768 171.381 42.768C169.729 42.768 168.763 41.242 168.763 39.324C168.763 37.378 169.673 35.796 171.381 35.796ZM190.337 44H192.017L191.471 34.564H189.231L187.929 38.344C187.565 39.45 187.243 40.612 186.991 41.634H186.949C186.711 40.584 186.417 39.464 186.081 38.358L184.849 34.564H182.581L181.951 44H183.561L183.771 40.206C183.841 38.918 183.897 37.42 183.939 36.188H183.967C184.219 37.364 184.555 38.652 184.919 39.856L186.179 43.888H187.509L188.881 39.8C189.301 38.61 189.693 37.336 190.001 36.188H190.043C190.029 37.462 190.099 38.932 190.155 40.15L190.337 44ZM200.047 38.414H196.491V35.978H200.257V34.564H194.769V44H200.467V42.586H196.491V39.814H200.047V38.414ZM198.129 34.06L199.557 32.394H198.283L197.499 33.318H197.471L196.687 32.394H195.399L196.827 34.06H198.129ZM202.554 43.552C203.072 43.86 204.108 44.14 205.102 44.14C207.538 44.14 208.686 42.824 208.686 41.312C208.686 39.954 207.888 39.128 206.25 38.512C204.99 38.022 204.444 37.686 204.444 36.958C204.444 36.412 204.92 35.824 206.012 35.824C206.894 35.824 207.552 36.09 207.888 36.272L208.308 34.886C207.818 34.634 207.062 34.41 206.04 34.41C203.996 34.41 202.708 35.586 202.708 37.126C202.708 38.484 203.702 39.31 205.256 39.87C206.46 40.304 206.936 40.724 206.936 41.438C206.936 42.208 206.32 42.726 205.214 42.726C204.332 42.726 203.492 42.446 202.932 42.124L202.554 43.552ZM213.04 44H214.762V36.006H217.478V34.564H210.352V36.006H213.04V44ZM223.45 41.326L224.304 44H226.152L223.086 34.564H220.888L217.864 44H219.642L220.454 41.326H223.45ZM220.734 40.024L221.462 37.7C221.63 37.14 221.77 36.482 221.91 35.936H221.938C222.078 36.482 222.232 37.126 222.414 37.7L223.156 40.024H220.734ZM232.363 44H234.071V40.444C234.295 40.486 234.589 40.5 234.911 40.5C236.129 40.5 237.207 40.178 237.893 39.492C238.425 38.988 238.705 38.246 238.705 37.35C238.705 36.468 238.341 35.726 237.781 35.264C237.179 34.76 236.255 34.494 234.995 34.494C233.833 34.494 232.979 34.578 232.363 34.69V44ZM234.071 35.894C234.253 35.852 234.589 35.81 235.065 35.81C236.255 35.81 236.983 36.37 236.983 37.42C236.983 38.526 236.199 39.156 234.911 39.156C234.561 39.156 234.281 39.142 234.071 39.086V35.894ZM241.183 44H242.891V40.122H243.759C244.739 40.15 245.187 40.542 245.453 41.774C245.719 42.95 245.943 43.72 246.083 44H247.861C247.665 43.636 247.413 42.544 247.119 41.368C246.881 40.458 246.475 39.8 245.803 39.548V39.506C246.685 39.184 247.511 38.358 247.511 37.14C247.511 36.342 247.217 35.684 246.699 35.25C246.069 34.718 245.145 34.494 243.787 34.494C242.793 34.494 241.827 34.578 241.183 34.69V44ZM242.891 35.88C243.059 35.838 243.409 35.796 243.955 35.796C245.075 35.796 245.803 36.272 245.803 37.308C245.803 38.246 245.075 38.862 243.913 38.862H242.891V35.88ZM255.136 41.326L255.99 44H257.838L254.772 34.564H252.574L249.55 44H251.328L252.14 41.326H255.136ZM252.42 40.024L253.148 37.7C253.316 37.14 253.456 36.482 253.596 35.936H253.624C253.764 36.482 253.918 37.126 254.1 37.7L254.842 40.024H252.42ZM260.15 34.564V44H261.872V39.842H265.862V44H267.584V34.564H265.862V38.344H261.872V34.564H260.15ZM274.243 44V40.024L277.379 34.564H275.433L274.299 36.986C273.977 37.672 273.711 38.26 273.473 38.862H273.445C273.193 38.218 272.955 37.686 272.633 36.986L271.499 34.564H269.539L272.521 40.066V44H274.243Z" fill="black"/>
</svg>
