<svg width="48" height="48" viewBox="0 0 48 48" fill="none" xmlns="http://www.w3.org/2000/svg">
<g clip-path="url(#clip0_5047_3657)">
<path d="M47.9999 0H24.4673V48H47.9999V0Z" fill="#ED2232"/>
<path d="M36.9584 29.06C36.7416 29.06 35.7662 29.06 35.5494 29.06C35.6307 28.8296 36.0507 27.5697 36.0507 27.5697C36.132 27.3394 36.1862 27.1226 36.2404 26.8923C36.2946 27.0955 36.43 27.5832 36.43 27.5832C36.43 27.5832 36.8229 28.6806 36.9584 29.06ZM35.7526 25.7678L33.7611 31.6205H34.7366C34.7366 31.6205 35.2785 29.9812 35.3191 29.8457C35.4546 29.8457 37.0397 29.8457 37.1752 29.8457C37.2158 29.9812 37.7713 31.6205 37.7713 31.6205H38.7738L36.7823 25.7678H35.7526Z" fill="#FFDF21"/>
<path d="M34.154 15.2273V18.6549C34.154 20.2806 34.9127 21.1748 36.281 21.1748C37.7035 21.1748 38.5164 20.2535 38.5164 18.6278V15.2273H37.5681V18.682C37.5681 19.7794 37.1345 20.3755 36.2946 20.3755C35.5088 20.3755 35.0888 19.7794 35.0888 18.682V15.2273H34.154Z" fill="#FFDF21"/>
<path d="M36.9722 7.97963C36.7554 7.97963 35.78 7.97963 35.5632 7.97963C35.6445 7.74931 36.0645 6.48936 36.0645 6.48936C36.1458 6.25905 36.2 6.02874 36.2542 5.78488C36.3083 5.98809 36.4574 6.48936 36.4574 6.48936C36.4574 6.50291 36.8367 7.60029 36.9722 7.97963ZM35.7664 4.6875L33.7749 10.5402H34.7503C34.7503 10.5402 35.2923 8.90088 35.3329 8.7654C35.4684 8.7654 37.0535 8.7654 37.189 8.7654C37.2296 8.90088 37.7986 10.5402 37.7986 10.5402H38.8011L36.8096 4.6875H35.7664Z" fill="#FFDF21"/>
<path d="M28.0849 7.89834C28.2746 7.89834 30.4151 7.89834 30.6048 7.89834C30.6048 8.08801 30.6048 10.5402 30.6048 10.5402H31.5531V4.6875H30.6048C30.6048 4.6875 30.6048 6.85515 30.6048 7.04482C30.4151 7.04482 28.2746 7.04482 28.0849 7.04482C28.0849 6.85515 28.0849 4.6875 28.0849 4.6875H27.1365V10.5402H28.0849C28.0849 10.5402 28.0849 8.08801 28.0849 7.89834Z" fill="#FFDF21"/>
<path d="M23.5326 0H0V48H23.5326V0Z" fill="#ED2232"/>
<path d="M19.3736 39.6002C19.1568 39.6002 18.1814 39.6002 17.9646 39.6002C18.0459 39.3699 18.4659 38.11 18.4659 38.11C18.5471 37.8797 18.6013 37.6493 18.6555 37.4055C18.7097 37.5952 18.8587 38.11 18.8587 38.11C18.8587 38.1235 19.2381 39.2209 19.3736 39.6002ZM18.1678 36.3081L16.1763 42.1608H17.1517C17.1517 42.1608 17.6936 40.5215 17.7343 40.386C17.8698 40.386 19.4549 40.386 19.5903 40.386C19.631 40.5215 20.1864 42.1608 20.1864 42.1608H21.189L19.1974 36.3081H18.1678Z" fill="#FFDF21"/>
<path d="M13.2091 37.9885C13.2091 38.5711 12.7485 38.9504 12.044 38.9504C12.044 38.9504 11.5563 38.9504 11.4073 38.9504C11.4073 38.7743 11.4073 37.2298 11.4073 37.0808C11.5157 37.0673 11.7053 37.0402 12.0169 37.0402C12.5588 37.0402 13.2091 37.2027 13.2091 37.9885ZM13.9136 40.4813C13.7781 39.9123 13.5343 39.5465 13.182 39.3568C13.7781 39.0859 14.1575 38.5575 14.1575 37.9072C14.1575 37.4466 13.9814 37.0266 13.6833 36.7557C13.3175 36.417 12.7621 36.2544 11.9763 36.2544C11.4886 36.2544 10.9466 36.3086 10.5538 36.3763L10.4725 36.3899V42.1477H11.4073C11.4073 42.1477 11.4073 39.8988 11.4073 39.6955C11.5563 39.6955 11.9898 39.6955 11.9898 39.6955C12.5859 39.6955 12.8704 39.9665 13.033 40.7116C13.1956 41.4974 13.3175 41.9309 13.4124 42.0935L13.4395 42.1477H14.4284L14.3472 41.9987C14.2252 41.7955 14.0897 41.2129 13.9136 40.4813Z" fill="#FFDF21"/>
<path d="M6.12357 39.1536C5.92035 39.1536 5.75778 39.1401 5.6223 39.113C5.6223 38.9504 5.6223 37.2434 5.6223 37.0944C5.74423 37.0808 5.9339 37.0537 6.20486 37.0537C6.66549 37.0537 7.43771 37.1892 7.43771 38.0698C7.42416 38.7607 6.94999 39.1536 6.12357 39.1536ZM7.84415 36.7557C7.47836 36.4305 6.92289 36.2544 6.19131 36.2544C5.66294 36.2544 5.18877 36.295 4.76879 36.3763L4.6875 36.3899V42.1477H5.6223C5.6223 42.1477 5.6223 40.1155 5.6223 39.8988C5.78488 39.9259 5.94745 39.9394 6.11002 39.9394C6.85515 39.9394 7.50545 39.7091 7.91189 39.2891C8.22349 38.9504 8.38606 38.5304 8.38606 38.0156C8.37251 37.5008 8.18284 37.0537 7.84415 36.7557Z" fill="#FFDF21"/>
<path d="M29.5752 39.7762C29.5752 39.7762 30.5371 39.7762 30.7132 39.7762C30.7132 39.9523 30.7132 41.1581 30.7132 41.28C30.5235 41.3478 30.2119 41.402 29.8461 41.402C28.5726 41.402 27.7733 40.5755 27.7733 39.2343C27.7733 37.8931 28.5997 37.0667 29.941 37.0667C30.4287 37.0667 30.808 37.1344 31.1467 37.297L31.2551 37.3512L31.499 36.5518L31.4177 36.5112C31.1603 36.3893 30.6183 36.2402 29.9545 36.2402C28.0578 36.2402 26.7979 37.4595 26.7979 39.2614C26.7979 40.142 27.0959 40.9413 27.6107 41.4426C28.1526 41.971 28.8707 42.2148 29.7919 42.2148C30.6725 42.2148 31.377 41.971 31.5667 41.9032L31.6344 41.8761V38.9904H29.5616V39.7762" fill="#FFDF21"/>
<path d="M19.3736 29.06C19.1568 29.06 18.1814 29.06 17.9646 29.06C18.0459 28.8296 18.4659 27.5697 18.4659 27.5697C18.5471 27.3394 18.6013 27.1091 18.6555 26.8787C18.7097 27.0684 18.8587 27.5832 18.8587 27.5832C18.8587 27.5832 19.2381 28.6806 19.3736 29.06ZM18.1678 25.7678L16.1763 31.6205H17.1517C17.1517 31.6205 17.6936 29.9812 17.7343 29.8457C17.8698 29.8457 19.4549 29.8457 19.5903 29.8457C19.631 29.9812 20.1864 31.6205 20.1864 31.6205H21.189L19.1839 25.7678H18.1678Z" fill="#FFDF21"/>
<path d="M13.2091 27.448C13.2091 28.0305 12.7485 28.4099 12.044 28.4099C12.044 28.4099 11.5563 28.4099 11.4073 28.4099C11.4073 28.2338 11.4073 26.6893 11.4073 26.5403C11.5157 26.5267 11.7053 26.4996 12.0169 26.4996C12.5588 26.4996 13.2091 26.6622 13.2091 27.448ZM13.9136 29.9408C13.7781 29.3718 13.5343 29.006 13.182 28.8163C13.7781 28.5454 14.1575 28.017 14.1575 27.3667C14.1575 26.9061 13.9814 26.4861 13.6833 26.2151C13.304 25.8764 12.7621 25.7139 11.9763 25.7139C11.4886 25.7139 10.9466 25.7681 10.5538 25.8358L10.4725 25.8493V31.6072H11.4073C11.4073 31.6072 11.4073 29.3582 11.4073 29.155C11.5563 29.155 11.9898 29.155 11.9898 29.155C12.5859 29.155 12.8704 29.426 13.033 30.1711C13.2091 30.9704 13.3175 31.3904 13.4124 31.553L13.4395 31.6072H14.4284L14.3472 31.4582C14.2252 31.2549 14.0897 30.6724 13.9136 29.9408Z" fill="#FFDF21"/>
<path d="M6.12357 28.6131C5.92035 28.6131 5.75778 28.5996 5.6223 28.5725C5.6223 28.4234 5.6223 26.7164 5.6223 26.5538C5.74423 26.5403 5.9339 26.5132 6.20486 26.5132C6.66549 26.5132 7.43771 26.6487 7.43771 27.5157C7.42416 28.2202 6.94999 28.6131 6.12357 28.6131ZM7.84415 26.2151C7.47836 25.89 6.92289 25.7139 6.19131 25.7139C5.66294 25.7139 5.18877 25.7545 4.76879 25.8358L4.6875 25.8493V31.6072H5.6223C5.6223 31.6072 5.6223 29.575 5.6223 29.3582C5.78488 29.3853 5.94745 29.3989 6.11002 29.3989C6.85515 29.3989 7.50545 29.1686 7.91189 28.7486C8.22349 28.4099 8.38606 27.9899 8.38606 27.4751C8.37251 26.9738 8.18284 26.5267 7.84415 26.2151Z" fill="#FFDF21"/>
<path d="M29.5752 29.2364C29.5752 29.2364 30.5371 29.2364 30.7132 29.2364C30.7132 29.4125 30.7132 30.6183 30.7132 30.7402C30.5235 30.808 30.2119 30.8622 29.8461 30.8622C28.5726 30.8622 27.7733 30.0357 27.7733 28.6945C27.7733 27.3533 28.5997 26.5269 29.941 26.5269C30.4287 26.5269 30.808 26.5946 31.1467 26.7572L31.2551 26.8114L31.499 26.012L31.4177 25.9714C31.1603 25.8495 30.6183 25.7004 29.9545 25.7004C28.0578 25.7004 26.7979 26.9197 26.7979 28.7216C26.7979 29.6022 27.0959 30.4015 27.6107 30.9028C28.1526 31.4312 28.8707 31.675 29.7919 31.675C30.6725 31.675 31.377 31.4312 31.5667 31.3634L31.6344 31.3363V28.4506H29.5616V29.2364" fill="#FFDF21"/>
<path d="M19.3736 18.5194C19.1568 18.5194 18.1814 18.5194 17.9646 18.5194C18.0459 18.2891 18.4659 17.0292 18.4659 17.0292C18.5471 16.7988 18.6013 16.5685 18.6555 16.3382C18.7097 16.5279 18.8587 17.0427 18.8587 17.0427C18.8587 17.0427 19.2381 18.1401 19.3736 18.5194ZM18.1678 15.2273L16.1763 21.08H17.1517C17.1517 21.08 17.6936 19.4407 17.7343 19.3052C17.8698 19.3052 19.4549 19.3052 19.5903 19.3052C19.631 19.4407 20.1864 21.08 20.1864 21.08H21.189L19.1839 15.2273H18.1678Z" fill="#FFDF21"/>
<path d="M42.2151 20.2542C42.2151 20.078 42.2151 18.6013 42.2151 18.4252C42.4047 18.4252 44.3963 18.4252 44.3963 18.4252V17.6123C44.3963 17.6123 42.4047 17.6123 42.2151 17.6123C42.2151 17.4362 42.2151 16.2169 42.2151 16.0408C42.4047 16.0408 44.5318 16.0408 44.5318 16.0408V15.2144H41.2667V21.067H44.6537V20.2406C44.6537 20.2542 42.4047 20.2542 42.2151 20.2542Z" fill="#FFDF21"/>
<path d="M13.2092 16.9075C13.2092 17.49 12.7486 17.8694 12.0441 17.8694C12.0441 17.8694 11.5564 17.8694 11.4073 17.8694C11.4073 17.6932 11.4073 16.1488 11.4073 15.9998C11.5157 15.9862 11.7054 15.9591 12.017 15.9591C12.5589 15.9591 13.2092 16.1217 13.2092 16.9075ZM13.9137 19.4003C13.7782 18.8313 13.5343 18.4655 13.1821 18.2758C13.7782 18.0048 14.144 17.4765 14.144 16.8262C14.144 16.3655 13.9679 15.9456 13.6698 15.6746C13.2905 15.3359 12.7486 15.1733 11.9628 15.1733C11.4751 15.1733 10.9332 15.2275 10.5403 15.2953L10.459 15.3088V21.0666H11.3938C11.3938 21.0666 11.3938 18.8177 11.3938 18.6145C11.5428 18.6145 11.9763 18.6145 11.9763 18.6145C12.5724 18.6145 12.857 18.8854 13.0195 19.6306C13.1956 20.4299 13.304 20.8499 13.3989 21.0125L13.426 21.0666H14.415L14.3337 20.9176C14.2253 20.7144 14.0898 20.1318 13.9137 19.4003Z" fill="#FFDF21"/>
<path d="M6.12357 18.0726C5.92035 18.0726 5.75778 18.059 5.6223 18.0319C5.6223 17.8829 5.6223 16.1759 5.6223 16.0133C5.73068 15.9998 5.9339 15.9727 6.20486 15.9727C6.66549 15.9727 7.43771 16.1081 7.43771 16.9752C7.42416 17.6797 6.94999 18.0726 6.12357 18.0726ZM7.84415 15.6746C7.47836 15.3495 6.92289 15.1733 6.19131 15.1733C5.66294 15.1733 5.18877 15.214 4.76879 15.2953L4.6875 15.3088V21.0666H5.6223C5.6223 21.0666 5.6223 19.0345 5.6223 18.8177C5.77133 18.8448 5.94745 18.8584 6.11002 18.8584C6.85515 18.8584 7.50545 18.628 7.91189 18.2081C8.22349 17.8694 8.38606 17.4494 8.38606 16.9346C8.37251 16.4333 8.18284 15.9862 7.84415 15.6746Z" fill="#FFDF21"/>
<path d="M29.5752 18.6959C29.5752 18.6959 30.5371 18.6959 30.7132 18.6959C30.7132 18.872 30.7132 20.0778 30.7132 20.1997C30.5235 20.2674 30.2119 20.3216 29.8461 20.3216C28.5726 20.3216 27.7733 19.4817 27.7733 18.154C27.7733 16.8127 28.5997 15.9863 29.941 15.9863C30.4287 15.9863 30.808 16.0541 31.1467 16.2166L31.2551 16.2708L31.499 15.4715L31.4177 15.4309C31.1603 15.3089 30.6183 15.1599 29.9545 15.1599C28.0578 15.1599 26.7979 16.3792 26.7979 18.1811C26.7979 19.0617 27.0959 19.861 27.6107 20.3623C28.1526 20.8906 28.8707 21.1345 29.7919 21.1345C30.6725 21.1345 31.377 20.8906 31.5667 20.8229L31.6344 20.7958V17.9101H29.5616V18.6959" fill="#FFDF21"/>
<path d="M19.3736 7.97963C19.1568 7.97963 18.1814 7.97963 17.9646 7.97963C18.0459 7.74931 18.4659 6.48936 18.4659 6.48936C18.5471 6.25905 18.6013 6.02874 18.6555 5.78488C18.7097 5.97455 18.8587 6.48936 18.8587 6.48936C18.8587 6.48936 19.2381 7.60029 19.3736 7.97963ZM18.1678 4.6875L16.1763 10.5402H17.1517C17.1517 10.5402 17.6936 8.90088 17.7343 8.7654C17.8698 8.7654 19.4549 8.7654 19.5903 8.7654C19.631 8.90088 20.1864 10.5402 20.1864 10.5402H21.189L19.1839 4.6875H18.1678Z" fill="#FFDF21"/>
<path d="M13.2091 6.36718C13.2091 6.94974 12.7485 7.32908 12.044 7.32908C12.044 7.32908 11.5563 7.32908 11.4073 7.32908C11.4073 7.15296 11.4073 5.6085 11.4073 5.45947C11.5157 5.44593 11.7053 5.41883 12.0169 5.41883C12.5588 5.41883 13.2091 5.58141 13.2091 6.36718ZM13.9136 8.85998C13.7781 8.29097 13.5343 7.92518 13.182 7.73551C13.7781 7.46456 14.1575 6.93619 14.1575 6.28589C14.1575 5.82527 13.9814 5.40528 13.6833 5.13433C13.304 4.79563 12.7621 4.63306 11.9763 4.63306C11.4886 4.63306 10.9466 4.68725 10.5538 4.75499L10.4725 4.76854V10.5264H11.4073C11.4073 10.5264 11.4073 8.27743 11.4073 8.07421C11.5563 8.07421 11.9898 8.07421 11.9898 8.07421C12.5859 8.07421 12.8704 8.34517 13.033 9.0903C13.2091 9.88962 13.3175 10.3096 13.4124 10.4722L13.4395 10.5264H14.4284L14.3472 10.3773C14.2252 10.1741 14.0897 9.59157 13.9136 8.85998Z" fill="#FFDF21"/>
<path d="M6.12357 7.5323C5.92035 7.5323 5.75778 7.51875 5.6223 7.49165C5.6223 7.34263 5.6223 5.62205 5.6223 5.47302C5.73068 5.45948 5.9339 5.43238 6.20486 5.43238C6.66549 5.43238 7.43771 5.56786 7.43771 6.44847C7.42416 7.13941 6.94999 7.5323 6.12357 7.5323ZM7.84415 5.13433C7.47836 4.80918 6.92289 4.63306 6.19131 4.63306C5.66294 4.63306 5.18877 4.6737 4.76879 4.75499L4.6875 4.76854V10.5264H5.6223C5.6223 10.5264 5.6223 8.49419 5.6223 8.27743C5.77133 8.30452 5.94745 8.30452 6.11002 8.30452C6.85515 8.30452 7.50545 8.07421 7.91189 7.65423C8.22349 7.31553 8.38606 6.89555 8.38606 6.38073C8.37251 5.89301 8.18284 5.44593 7.84415 5.13433Z" fill="#FFDF21"/>
</g>
<defs>
<clipPath id="clip0_5047_3657">
<rect width="48" height="48" fill="white"/>
</clipPath>
</defs>
</svg>
