<svg width="21" height="20" viewBox="0 0 21 20" fill="none" xmlns="http://www.w3.org/2000/svg">
<path fill-rule="evenodd" clip-rule="evenodd" d="M9.91797 0C14.8885 0 18.918 4.02944 18.918 9C18.918 11.1248 18.1817 13.0776 16.9503 14.6172L20.6251 18.2929C21.0156 18.6834 21.0156 19.3166 20.6251 19.7071C20.2646 20.0676 19.6974 20.0953 19.3051 19.7903L19.2109 19.7071L15.5351 16.0323C13.9956 17.2637 12.0427 18 9.91797 18C4.94741 18 0.917969 13.9706 0.917969 9C0.917969 4.02944 4.94741 0 9.91797 0ZM9.91797 2C6.05198 2 2.91797 5.13401 2.91797 9C2.91797 12.866 6.05198 16 9.91797 16C13.784 16 16.918 12.866 16.918 9C16.918 5.13401 13.784 2 9.91797 2Z" fill="#1A1A1A"/>
</svg>
