<svg width="25" height="24" viewBox="0 0 25 24" fill="none" xmlns="http://www.w3.org/2000/svg">
<path fill-rule="evenodd" clip-rule="evenodd" d="M11.918 2C16.8885 2 20.918 6.02944 20.918 11C20.918 13.1248 20.1817 15.0776 18.9503 16.6172L22.6251 20.2929C23.0156 20.6834 23.0156 21.3166 22.6251 21.7071C22.2646 22.0676 21.6974 22.0953 21.3051 21.7903L21.2109 21.7071L17.5351 18.0323C15.9956 19.2637 14.0427 20 11.918 20C6.94741 20 2.91797 15.9706 2.91797 11C2.91797 6.02944 6.94741 2 11.918 2ZM11.918 4C8.05198 4 4.91797 7.13401 4.91797 11C4.91797 14.866 8.05198 18 11.918 18C15.784 18 18.918 14.866 18.918 11C18.918 7.13401 15.784 4 11.918 4Z" fill="#1A1A1A"/>
</svg>
