<svg width="19" height="20" viewBox="0 0 19 20" fill="none" xmlns="http://www.w3.org/2000/svg">
<g clip-path="url(#clip0_5201_42219)">
<path d="M9.91797 10C12.7586 10 15.0608 7.76172 15.0608 5C15.0608 2.23828 12.7586 0 9.91797 0C7.07734 0 4.77511 2.23828 4.77511 5C4.77511 7.76172 7.07734 10 9.91797 10ZM13.518 11.25H12.847C11.955 11.6484 10.9626 11.875 9.91797 11.875C8.87333 11.875 7.88493 11.6484 6.98895 11.25H6.31797C3.33672 11.25 0.917969 13.6016 0.917969 16.5V18.125C0.917969 19.1602 1.78181 20 2.84654 20H16.9894C18.0541 20 18.918 19.1602 18.918 18.125V16.5C18.918 13.6016 16.4992 11.25 13.518 11.25Z" fill="#FFDF21"/>
</g>
<defs>
<clipPath id="clip0_5201_42219">
<rect width="18" height="20" fill="white" transform="translate(0.917969)"/>
</clipPath>
</defs>
</svg>
