<svg width="18" height="12" viewBox="0 0 18 12" fill="none" xmlns="http://www.w3.org/2000/svg">
<g filter="url(#filter0_i_5742_38618)">
<path d="M3.3584 5.1623C4.27767 5.1623 5.02507 4.41557 5.02507 3.49711C5.02507 2.57866 4.27767 1.83193 3.3584 1.83193C2.43913 1.83193 1.69173 2.57866 1.69173 3.49711C1.69173 4.41557 2.43913 5.1623 3.3584 5.1623ZM15.0251 5.1623C15.9443 5.1623 16.6917 4.41557 16.6917 3.49711C16.6917 2.57866 15.9443 1.83193 15.0251 1.83193C14.1058 1.83193 13.3584 2.57866 13.3584 3.49711C13.3584 4.41557 14.1058 5.1623 15.0251 5.1623ZM15.8584 5.99489H14.1917C13.7334 5.99489 13.3193 6.17962 13.0173 6.47883C14.0667 7.05384 14.8115 8.09198 14.973 9.32526H16.6917C17.1527 9.32526 17.5251 8.95319 17.5251 8.49266V7.66007C17.5251 6.74162 16.7777 5.99489 15.8584 5.99489ZM9.19173 5.99489C10.8037 5.99489 12.1084 4.69136 12.1084 3.08082C12.1084 1.47027 10.8037 0.166748 9.19173 0.166748C7.57975 0.166748 6.27507 1.47027 6.27507 3.08082C6.27507 4.69136 7.57975 5.99489 9.19173 5.99489ZM11.1917 6.82748H10.9756C10.4339 7.08767 9.83236 7.24378 9.19173 7.24378C8.55111 7.24378 7.95215 7.08767 7.40788 6.82748H7.19173C5.53548 6.82748 4.19173 8.17004 4.19173 9.82481V10.5741C4.19173 11.2636 4.75163 11.823 5.44173 11.823H12.9417C13.6318 11.823 14.1917 11.2636 14.1917 10.5741V9.82481C14.1917 8.17004 12.848 6.82748 11.1917 6.82748ZM5.36621 6.47883C5.06413 6.17962 4.65007 5.99489 4.19173 5.99489H2.52507C1.60579 5.99489 0.858398 6.74162 0.858398 7.66007V8.49266C0.858398 8.95319 1.23079 9.32526 1.69173 9.32526H3.40788C3.57194 8.09198 4.31673 7.05384 5.36621 6.47883Z" fill="url(#paint0_linear_5742_38618)" fill-opacity="0.4"/>
</g>
<defs>
<filter id="filter0_i_5742_38618" x="0.858398" y="0.166748" width="16.667" height="15.6562" filterUnits="userSpaceOnUse" color-interpolation-filters="sRGB">
<feFlood flood-opacity="0" result="BackgroundImageFix"/>
<feBlend mode="normal" in="SourceGraphic" in2="BackgroundImageFix" result="shape"/>
<feColorMatrix in="SourceAlpha" type="matrix" values="0 0 0 0 0 0 0 0 0 0 0 0 0 0 0 0 0 0 127 0" result="hardAlpha"/>
<feOffset dy="4"/>
<feGaussianBlur stdDeviation="2"/>
<feComposite in2="hardAlpha" operator="arithmetic" k2="-1" k3="1"/>
<feColorMatrix type="matrix" values="0 0 0 0 0 0 0 0 0 0.2 0 0 0 0 0.4 0 0 0 0.1 0"/>
<feBlend mode="normal" in2="shape" result="effect1_innerShadow_5742_38618"/>
</filter>
<linearGradient id="paint0_linear_5742_38618" x1="17.5667" y1="0.166748" x2="6.62727" y2="15.8476" gradientUnits="userSpaceOnUse">
<stop stop-color="#96AAB7"/>
<stop offset="1" stop-color="#728896"/>
</linearGradient>
</defs>
</svg>
