<svg width="15" height="18" viewBox="0 0 15 18" fill="none" xmlns="http://www.w3.org/2000/svg">
<g filter="url(#filter0_i_5742_38614)">
<path d="M7.63553 9.16658C9.95888 9.16658 11.8419 7.30135 11.8419 4.99992C11.8419 2.69849 9.95888 0.833252 7.63553 0.833252C5.31217 0.833252 3.42918 2.69849 3.42918 4.99992C3.42918 7.30135 5.31217 9.16658 7.63553 9.16658ZM10.58 10.2083H10.0312C9.30163 10.5403 8.48994 10.7291 7.63553 10.7291C6.78111 10.7291 5.9727 10.5403 5.23988 10.2083H4.69108C2.25271 10.2083 0.274414 12.1679 0.274414 14.5833V15.9374C0.274414 16.8 0.980949 17.4999 1.8518 17.4999H13.4193C14.2901 17.4999 14.9966 16.8 14.9966 15.9374V14.5833C14.9966 12.1679 13.0183 10.2083 10.58 10.2083Z" fill="url(#paint0_linear_5742_38614)" fill-opacity="0.4"/>
</g>
<defs>
<filter id="filter0_i_5742_38614" x="0.274414" y="0.833252" width="14.7227" height="20.6667" filterUnits="userSpaceOnUse" color-interpolation-filters="sRGB">
<feFlood flood-opacity="0" result="BackgroundImageFix"/>
<feBlend mode="normal" in="SourceGraphic" in2="BackgroundImageFix" result="shape"/>
<feColorMatrix in="SourceAlpha" type="matrix" values="0 0 0 0 0 0 0 0 0 0 0 0 0 0 0 0 0 0 127 0" result="hardAlpha"/>
<feOffset dy="4"/>
<feGaussianBlur stdDeviation="2"/>
<feComposite in2="hardAlpha" operator="arithmetic" k2="-1" k3="1"/>
<feColorMatrix type="matrix" values="0 0 0 0 0 0 0 0 0 0.2 0 0 0 0 0.4 0 0 0 0.1 0"/>
<feBlend mode="normal" in2="shape" result="effect1_innerShadow_5742_38614"/>
</filter>
<linearGradient id="paint0_linear_5742_38614" x1="15.0334" y1="0.833252" x2="-1.51085" y2="15.4839" gradientUnits="userSpaceOnUse">
<stop stop-color="#96AAB7"/>
<stop offset="1" stop-color="#728896"/>
</linearGradient>
</defs>
</svg>
