<svg width="18" height="18" viewBox="0 0 18 18" fill="none" xmlns="http://www.w3.org/2000/svg">
<g filter="url(#filter0_i_6379_7205)">
<path d="M16.3927 8.07459H15.6926C14.0462 8.07459 13.2214 6.08005 14.3857 4.91333L14.8805 4.41689C15.0436 4.24136 15.1324 4.00924 15.1281 3.76941C15.1239 3.52958 15.0269 3.30078 14.8576 3.13119C14.6883 2.9616 14.4599 2.86447 14.2206 2.86025C13.9813 2.85603 13.7496 2.94506 13.5745 3.10858L13.0794 3.60404C11.9151 4.77042 9.92468 3.94422 9.92468 2.29442V1.59289C9.92468 1.34726 9.82731 1.11169 9.65398 0.938009C9.48065 0.764324 9.24557 0.666748 9.00045 0.666748C8.75532 0.666748 8.52024 0.764324 8.34691 0.938009C8.17359 1.11169 8.07621 1.34726 8.07621 1.59289V2.29474C8.07621 3.94455 6.08578 4.77075 4.92147 3.60436L4.42638 3.10858C4.25125 2.94506 4.01962 2.85603 3.78029 2.86025C3.54095 2.86447 3.3126 2.9616 3.14331 3.13119C2.97403 3.30078 2.87704 3.52958 2.87277 3.76941C2.8685 4.00924 2.95729 4.24136 3.12043 4.41689L3.61584 4.91333C4.78015 6.08005 3.95532 8.07459 2.30892 8.07459H1.60819C1.48538 8.07228 1.36334 8.09453 1.24921 8.14003C1.13508 8.18552 1.03115 8.25336 0.943483 8.33958C0.855819 8.42579 0.786183 8.52865 0.738646 8.64214C0.69111 8.75564 0.666626 8.87749 0.666626 9.00057C0.666626 9.12365 0.69111 9.2455 0.738646 9.359C0.786183 9.47249 0.855819 9.57535 0.943483 9.66156C1.03115 9.74778 1.13508 9.81562 1.24921 9.86111C1.36334 9.90661 1.48538 9.92886 1.60819 9.92655H2.30827C3.95467 9.92655 4.7795 11.9214 3.61519 13.0881L3.12043 13.5842C2.95889 13.7601 2.87144 13.9917 2.87637 14.2306C2.8813 14.4696 2.97823 14.6974 3.14688 14.8664C3.31553 15.0354 3.54285 15.1325 3.78131 15.1374C4.01977 15.1424 4.2509 15.0548 4.42638 14.8929L4.92147 14.3965C6.08578 13.2297 8.07621 14.0563 8.07621 15.7061V16.4073C8.07621 16.6529 8.17359 16.8885 8.34691 17.0622C8.52024 17.2358 8.75532 17.3334 9.00045 17.3334C9.24557 17.3334 9.48065 17.2358 9.65398 17.0622C9.82731 16.8885 9.92468 16.6529 9.92468 16.4073V15.7067C9.92468 14.0569 11.9151 13.2304 13.0794 14.3971L13.5745 14.8929C13.75 15.0548 13.9811 15.1424 14.2196 15.1374C14.458 15.1325 14.6854 15.0354 14.854 14.8664C15.0227 14.6974 15.1196 14.4696 15.1245 14.2306C15.1295 13.9917 15.042 13.7601 14.8805 13.5842L14.3851 13.0881C13.2207 11.9214 14.0456 9.92655 15.692 9.92655H16.3917C16.5145 9.92886 16.6366 9.90661 16.7507 9.86111C16.8648 9.81562 16.9688 9.74778 17.0564 9.66156C17.1441 9.57535 17.2137 9.47249 17.2613 9.359C17.3088 9.2455 17.3333 9.12365 17.3333 9.00057C17.3333 8.87749 17.3088 8.75564 17.2613 8.64214C17.2137 8.52865 17.1441 8.42579 17.0564 8.33958C16.9688 8.25336 16.8648 8.18552 16.7507 8.14003C16.6366 8.09453 16.5145 8.07228 16.3917 8.07459H16.3927ZM7.96089 9.52159C7.65248 9.52159 7.35099 9.42994 7.09456 9.25825C6.83813 9.08655 6.63826 8.84251 6.52024 8.55699C6.40222 8.27147 6.37134 7.95729 6.4315 7.65418C6.49167 7.35108 6.64018 7.07266 6.85826 6.85413C7.07634 6.6356 7.35419 6.48678 7.65667 6.42649C7.95916 6.3662 8.27269 6.39714 8.55762 6.51541C8.84255 6.63367 9.08609 6.83395 9.25743 7.09091C9.42877 7.34787 9.52023 7.64998 9.52023 7.95903C9.52023 8.37344 9.35594 8.77089 9.06351 9.06392C8.77107 9.35696 8.37445 9.52159 7.96089 9.52159ZM10.5598 11.3446C10.4056 11.3446 10.2548 11.2988 10.1266 11.2129C9.99841 11.1271 9.89848 11.005 9.83947 10.8623C9.78046 10.7195 9.76502 10.5624 9.7951 10.4109C9.82518 10.2593 9.89944 10.1201 10.0085 10.0108C10.1175 9.90158 10.2564 9.82717 10.4077 9.79703C10.5589 9.76688 10.7157 9.78235 10.8582 9.84149C11.0006 9.90062 11.1224 10.0008 11.2081 10.1292C11.2937 10.2577 11.3395 10.4088 11.3395 10.5633C11.3395 10.7705 11.2573 10.9692 11.1111 11.1157C10.9649 11.2623 10.7666 11.3446 10.5598 11.3446Z" fill="#FFDF21"/>
</g>
<defs>
<filter id="filter0_i_6379_7205" x="0.666626" y="0.666748" width="16.6666" height="20.6667" filterUnits="userSpaceOnUse" color-interpolation-filters="sRGB">
<feFlood flood-opacity="0" result="BackgroundImageFix"/>
<feBlend mode="normal" in="SourceGraphic" in2="BackgroundImageFix" result="shape"/>
<feColorMatrix in="SourceAlpha" type="matrix" values="0 0 0 0 0 0 0 0 0 0 0 0 0 0 0 0 0 0 127 0" result="hardAlpha"/>
<feOffset dy="4"/>
<feGaussianBlur stdDeviation="2"/>
<feComposite in2="hardAlpha" operator="arithmetic" k2="-1" k3="1"/>
<feColorMatrix type="matrix" values="0 0 0 0 0 0 0 0 0 0.2 0 0 0 0 0.4 0 0 0 0.1 0"/>
<feBlend mode="normal" in2="shape" result="effect1_innerShadow_6379_7205"/>
</filter>
</defs>
</svg>
