<svg width="17" height="18" viewBox="0 0 17 18" fill="none" xmlns="http://www.w3.org/2000/svg">
<g filter="url(#filter0_i_6239_40275)">
<path d="M8.34115 0.666748C3.73765 0.666748 0.0078125 4.39659 0.0078125 9.00008C0.0078125 13.6036 3.73765 17.3334 8.34115 17.3334C12.9446 17.3334 16.6745 13.6036 16.6745 9.00008C16.6745 4.39659 12.9446 0.666748 8.34115 0.666748ZM11.449 11.1842L10.777 12.0243C10.7329 12.0794 10.6783 12.1253 10.6165 12.1594C10.5546 12.1935 10.4867 12.215 10.4165 12.2228C10.3463 12.2306 10.2753 12.2245 10.2075 12.2049C10.1397 12.1852 10.0764 12.1524 10.0213 12.1083L7.76991 10.4376C7.6126 10.3116 7.48563 10.1519 7.39838 9.97029C7.31114 9.78864 7.26585 9.5897 7.26588 9.38819V4.16137C7.26588 4.01878 7.32252 3.88203 7.42335 3.78121C7.52417 3.68038 7.66092 3.62374 7.80351 3.62374H8.87878C9.02137 3.62374 9.15812 3.68038 9.25895 3.78121C9.35977 3.88203 9.41642 4.01878 9.41642 4.16137V9.00008L11.3653 10.4282C11.4205 10.4723 11.4664 10.5269 11.5005 10.5888C11.5346 10.6506 11.5561 10.7186 11.5639 10.7889C11.5716 10.8591 11.5655 10.9301 11.5458 10.998C11.5261 11.0658 11.4932 11.1291 11.449 11.1842Z" fill="#FFDF21"/>
</g>
<defs>
<filter id="filter0_i_6239_40275" x="0.0078125" y="0.666748" width="16.666" height="20.6667" filterUnits="userSpaceOnUse" color-interpolation-filters="sRGB">
<feFlood flood-opacity="0" result="BackgroundImageFix"/>
<feBlend mode="normal" in="SourceGraphic" in2="BackgroundImageFix" result="shape"/>
<feColorMatrix in="SourceAlpha" type="matrix" values="0 0 0 0 0 0 0 0 0 0 0 0 0 0 0 0 0 0 127 0" result="hardAlpha"/>
<feOffset dy="4"/>
<feGaussianBlur stdDeviation="2"/>
<feComposite in2="hardAlpha" operator="arithmetic" k2="-1" k3="1"/>
<feColorMatrix type="matrix" values="0 0 0 0 0 0 0 0 0 0.2 0 0 0 0 0.4 0 0 0 0.1 0"/>
<feBlend mode="normal" in2="shape" result="effect1_innerShadow_6239_40275"/>
</filter>
</defs>
</svg>
