<?xml version="1.0" encoding="utf-8"?>
<!-- Generated by IcoMoon.io -->
<!DOCTYPE svg PUBLIC "-//W3C//DTD SVG 1.1//EN" "http://www.w3.org/Graphics/SVG/1.1/DTD/svg11.dtd">
<svg version="1.1" xmlns="http://www.w3.org/2000/svg" xmlns:xlink="http://www.w3.org/1999/xlink" width="752" height="80" viewBox="0 0 752 80">
<svg id="icon-ico-arrow-down" viewBox="0 0 110 64">
<path d="M0 0 l110 0 l-55 55 l-55 -55"/>
</svg>
<svg id="icon-ico-arrow-up" viewBox="0 0 110 64">
<path d="M55 0 l55 55 l-110 0 l55 -55"/>
</svg>
<svg id="icon-ico-close" viewBox="0 0 64 64">
</svg>
<svg id="icon-ico-pause-big" viewBox="0 0 100 100">
<rect x="0" y="0" width="100" height="100" />
</svg>
<svg id="icon-ico-circle-big" viewBox="0 0 32 32">
  <!--path d="M 12,0 C 3.163,0 -4,7.163 -4,16 -4,24.837 3.163,32 12,32 20.837,32 28,24.837 28,16 28,7.163 20.837,0 12,0 Z"/-->
  <circle cx="16" cy="16" r="16" />
</svg>
<svg id="icon-ico-bullet" viewBox="0 0 24 24">
  <circle cx="12" cy="12" r="10" />
</svg>
<svg id="icon-ico-play-big" viewBox="0 0 100 100">
  <polygon points="0,0 100,50 0,100 "/>
</svg>
<svg id="icon-ico-replay-big" viewBox="-7 0 65 65">
  <path d="m 7.0208333,32.5 43.3333337,32.330357 0,-64.66071414 L 7.0208333,32.5 Z M 0,3.1840319 C 0,1.92413 1.0105851,0.90277778 2.2767857,0.90277778 c 1.257434,0 2.2767857,1.01975612 2.2767857,2.28125412 l 0,59.5347141 C 4.5535714,63.978648 3.5429863,65 2.2767857,65 1.0193517,65 0,63.980244 0,62.718746 L 0,3.1840319 Z"/>
</svg>
<svg id="icon-ico-error-general" height="2em">
<text x="0" y="1em">Omlouváme se, došlo k chybě...</text>
</svg>
<svg id="icon-ico-error-network" viewBox="0 0 45 32">
<path d="M42.39 11.464l-1.094-1.094-2.051 2.051c-4.552-3.936-10.528-6.333-17.065-6.333-7.069 0-13.482 2.804-18.19 7.36l-3.991-4.284c5.705-5.669 13.567-9.172 22.248-9.172 8.694 0 16.566 3.514 22.275 9.2zM29.753 13.060l-4.775 4.775c-0.849-0.177-1.825-0.278-2.825-0.278-4.025 0-7.665 1.643-10.288 4.295l-3.955-4.228c3.603-3.748 8.658-6.077 14.258-6.077 2.737 0 5.345 0.556 7.715 1.562zM21.927 22.563c2.014 0.040 3.86 0.732 5.342 1.873l-3.68 3.643 1.034 1.032-2.695 2.888-6.298-6.738c1.625-1.606 3.836-2.622 6.284-2.699zM32.442 16.274l4.427 4.427 4.427-4.427 2.951 2.951-4.427 4.427 4.427 4.427-2.951 2.951-4.427-4.427-4.427 4.427-2.951-2.951 4.427-4.427-4.427-4.427z"></path>
</svg>
<svg id="icon-ico-fullscreen" viewBox="0 0 24.5633 24.104234">
  <rect
     transform="matrix(0.70710678,0.70710678,-0.70710678,0.70710678,0,0)"
     x="15.70654"
     y="-13.440475"
     width="3"
     height="11"
     rx="1.5" />
  <path
     d="m 23.896389,0.66691725 c 0.26876,0.26476 0.43991,0.62989005 0.45416,1.03797005 l 0.2118,6.0651 c 0.0294,0.84073 -0.62739,1.54977 -1.46706,1.57909 -0.84551,0.0295 -1.5442,-0.63012 -1.57363,-1.4729 l -0.16313,-4.6714 -4.6714,-0.16313 c -0.84278,-0.0294 -1.50243,-0.72812 -1.4729,-1.57364 0.0293,-0.83966005 0.73835,-1.49642005 1.57909,-1.46706004683 l 6.0651,0.21179999683 c 0.40807,0.0143 0.77321,0.18541 1.03797,0.45417 z"/>
  <rect
     transform="matrix(-0.70710678,-0.70710678,0.70710678,-0.70710678,0,0)"
     x="-18.706602"
     y="-13.115869"
     width="3"
     height="11"
     rx="1.5" />
  <path
     d="m 0.66690879,23.437317 c -0.26876,-0.26476 -0.43991,-0.62989 -0.45416,-1.03797 L 9.4879219e-4,16.334247 C -0.02845121,15.493517 0.62833879,14.784477 1.4680088,14.755157 c 0.84551,-0.0295 1.5442,0.63012 1.57363,1.4729 l 0.16313,4.6714 4.6714,0.16313 c 0.84278,0.0294 1.50243,0.72812 1.4729,1.57364 -0.0293,0.83966 -0.73835,1.49642 -1.57909,1.46706 l -6.0651,-0.2118 c -0.40807,-0.0143 -0.77321001,-0.18541 -1.03797001,-0.45417 z"/>
</svg>
<svg id="icon-ico-help" viewBox="0 0 20 32">
<path d="M20.3 7.452c0-4.825-4.154-7.452-10.125-7.452-0.16-0.004-0.348-0.005-0.537-0.005-3.271 0-6.403 0.598-9.292 1.69-0.010 2.52-0.154 5.099-0.345 7.533 1.529 0.239 3.248 0.43 4.918 0.573l1.147-3.915c0.023-0.224 0.15-0.415 0.331-0.524 0.544-0.364 1.21-0.58 1.926-0.58 0.063 0 0.126 0.002 0.188 0.005 1.694 0.039 3.060 1.428 3.060 3.137 0 0.093-0.004 0.185-0.012 0.276 0.001 3.33-2.149 5.098-7.117 8.537 0.213 2.026 0.88 3.861 1.899 5.45 1.79-0.132 3.503-0.475 5.11-1.043q-0.268-1.831-0.268-2.828c0.091-0.415 0.378-0.748 0.756-0.903 5.207-2.693 8.36-5.32 8.36-9.952zM8.838 24.598c-0.049-0.002-0.105-0.003-0.163-0.003-2.153 0-3.903 1.724-3.945 3.867 0.247 2.006 1.938 3.54 3.986 3.54 2.065 0 3.766-1.56 3.99-3.565 0.004-0.072 0.006-0.134 0.006-0.198 0-2.014-1.633-3.647-3.647-3.647-0.080 0-0.159 0.003-0.237 0.008z"></path>
</svg>
<svg id="icon-ico-info" viewBox="0 0 15 32">
<path d="M11.643 15.2c0.291-0.633 0.507-1.366 0.611-2.136-0.095-1.204-1.021-2.123-2.178-2.213-3.932 0.65-7.282 2.719-9.583 5.65-0.046 0.107-0.058 0.192-0.058 0.28 0 0.471 0.341 0.862 0.79 0.939 1.2-1.167 2.612-2.118 4.175-2.784 0.31-0.034 0.31 0.264 0.187 0.658l-4.972 12.308c-0.309 0.619-0.519 1.339-0.589 2.101 0.231 1.086 1.116 1.887 2.203 1.992 4.152-0.491 7.703-2.68 10-5.838 0.049-0.115 0.061-0.199 0.061-0.285 0-0.512-0.408-0.929-0.917-0.942-1.264 1.278-2.757 2.326-4.413 3.076-0.437 0.038-0.487-0.26-0.29-0.701zM8.345 4.123c-0.002 0.040-0.003 0.087-0.003 0.135 0 1.483 1.202 2.686 2.686 2.686 0.052 0 0.104-0.002 0.156-0.004 2.008-0.053 3.622-1.699 3.622-3.723 0-0.098-0.004-0.196-0.011-0.292 0.017-0.095 0.026-0.219 0.026-0.345 0-1.415-1.147-2.562-2.562-2.562-0.043 0-0.085 0.001-0.127 0.003-2.106 0.079-3.789 1.811-3.789 3.936 0 0.061 0.001 0.121 0.004 0.181z"></path>
</svg>
<svg id="icon-ico-pause" viewBox="0 0 25 32">
<path d="M23.333 32h-4c-1.105 0-2-0.895-2-2v-28c0-1.105 0.895-2 2-2h4c1.105 0 2 0.895 2 2v28c0 1.105-0.895 2-2 2zM6 32h-4c-1.105 0-2-0.895-2-2v-28c0-1.105 0.895-2 2-2h4c1.105 0 2 0.895 2 2v28c0 1.105-0.895 2-2 2z"></path>
</svg>
<svg id="icon-ico-play" viewBox="0 0 29 32">
<path d="M5.221 0.718c-2.883-1.654-5.22-0.299-5.22 3.023v24.517c0 3.325 2.337 4.678 5.22 3.025l21.431-12.29c2.884-1.653 2.884-4.335 0-5.988z"></path>
</svg>
<svg id="icon-ico-pop" viewBox="0 0 32 32">
<path d="M28.96 12.688v-7.506l-8.249 8.254-2.151-2.146 8.267-8.258h-7.52v-3.033h8.284c2.436 0.003 4.409 1.978 4.409 4.414 0 0 0 0 0 0v8.274h-3.040zM2.667 11.556v14.222c0 1.964 1.592 3.556 3.556 3.556h14.222c1.964 0 3.556-1.592 3.556-3.556v-9.778h2.667v11.556c0 2.455-1.99 4.444-4.444 4.444h-17.778c-2.455 0-4.444-1.99-4.444-4.444v-17.778c0-2.455 1.99-4.444 4.444-4.444h11.556v2.667h-9.778c-1.964 0-3.556 1.592-3.556 3.556z"></path>
</svg>
<svg id="icon-ico-replay" viewBox="0 0 33 32">
<path d="M31.421 13.47l-8.777-2.347c-1.181-0.315-1.43-1.286-0.557-2.168l2.085-2.106c-2.172-2.042-5.105-3.297-8.331-3.297-0.001 0-0.001 0-0.002 0-6.823 0.065-12.329 5.612-12.329 12.444s5.506 12.379 12.323 12.444c2.944-0.001 5.638-1.042 7.74-2.775l0.061 0.098c0.184-0.105 0.405-0.166 0.64-0.166 0.484 0 0.906 0.262 1.134 0.651l0.346 0.263-0.010 0.010c0.241 0.238 0.39 0.569 0.39 0.935 0 0.235-0.062 0.456-0.17 0.648l0.11 0.1c-2.727 2.359-6.309 3.796-10.226 3.796-0.003 0-0.005 0-0.008 0-8.836 0-16-7.163-16-16s7.163-16 16-16c0.002 0 0.004 0 0.006 0 4.2 0 8.013 1.652 10.827 4.341l1.861-1.889c0.873-0.882 1.834-0.629 2.146 0.563l2.321 8.867c0.306 1.193-0.398 1.905-1.58 1.588z"></path>
</svg>
<svg id="icon-ico-settings" viewBox="0 0 32 32">
<path d="M27.609 12.327l-0.8-1.956c0.588-1.228 1.168-2.72 1.642-4.258l-2.424-2.723c-1.747 0.58-3.204 1.191-4.607 1.895l-1.775-0.897c-0.646-1.746-1.305-3.193-2.051-4.587l-3.424 0.196c-0.634 1.211-1.259 2.666-1.779 4.169l-2.026 1.042c-1.215-0.578-2.705-1.16-4.239-1.643l-2.748 2.419c0.576 1.743 1.19 3.204 1.9 4.607l-0.905 1.766c-1.743 0.644-3.191 1.302-4.584 2.050l0.193 3.422c1.21 0.631 2.667 1.255 4.172 1.776l1.037 2.027c-0.589 1.228-1.168 2.719-1.642 4.256l2.425 2.731c1.751-0.587 3.208-1.199 4.612-1.902l1.77 0.903c0.646 1.744 1.305 3.191 2.051 4.583l3.424-0.195c0.634-1.211 1.259-2.666 1.779-4.169l2.026-1.044c1.213 0.578 2.703 1.161 4.237 1.646l2.75-2.418c-0.576-1.742-1.189-3.202-1.9-4.605l0.904-1.767c1.741-0.646 3.189-1.308 4.581-2.060l-0.19-3.421c-1.209-0.628-2.666-1.251-4.171-1.77zM21.138 16c0 0.003 0 0.007 0 0.011 0 2.838-2.3 5.138-5.138 5.138s-5.138-2.3-5.138-5.138c0-2.838 2.3-5.138 5.138-5.138 2.832 0.004 5.128 2.296 5.138 5.126z"></path>
</svg>
<svg id="icon-ico-skip" viewBox="0 0 38 32">
<path d="M34.909 32c-1.607 0-2.909-1.302-2.909-2.909v-26.182c0-1.607 1.302-2.909 2.909-2.909s2.909 1.302 2.909 2.909v26.182c0 1.607-1.302 2.909-2.909 2.909zM24.204 18.996l-19.465 12.291c-2.618 1.652-4.739 0.291-4.739-3.025v-24.521c0-3.322 2.124-4.678 4.739-3.023l19.465 12.291c1.165 0.516 1.963 1.661 1.963 2.993s-0.798 2.478-1.942 2.985z"></path>
</svg>
<svg id="icon-ico-smallscreen" viewBox="0 0 24.5633 24.104234">
  <rect
     transform="matrix(-0.70710678,-0.70710678,0.70710678,-0.70710678,0,0)"
     x="-18.868876"
     y="5.7456255"
     width="3"
     height="11"
     rx="1.5" />
  <path
     d="m 14.118744,10.214972 c -0.26876,-0.2647603 -0.43991,-0.6298903 -0.45416,-1.0379703 l -0.2118,-6.0651 c -0.0294,-0.84073 0.62739,-1.54977 1.46706,-1.57909 0.84551,-0.0295 1.5442,0.63012 1.57363,1.4729 l 0.16313,4.6714 4.6714,0.16313 c 0.84278,0.0294 1.50243,0.72812 1.4729,1.57364 -0.0293,0.8396603 -0.73835,1.4964203 -1.57909,1.4670603 l -6.0651,-0.2118 c -0.40807,-0.0143 -0.77321,-0.18541 -1.03797,-0.45417 z"/>
  <rect
     transform="matrix(0.70710678,0.70710678,-0.70710678,0.70710678,0,0)"
     x="15.544268"
     y="5.4210176"
     width="3"
     height="11"
     rx="1.5" />
  <path
     d="m 10.444555,13.889263 c 0.26876,0.26476 0.43991,0.62989 0.45416,1.03797 l 0.2118,6.0651 c 0.0294,0.84073 -0.62739,1.54977 -1.4670598,1.57909 -0.84551,0.0295 -1.5442,-0.63012 -1.57363,-1.4729 l -0.16313,-4.6714 -4.6714,-0.16313 c -0.84278,-0.0294 -1.50243,-0.72812 -1.4729,-1.57364 0.0293,-0.83966 0.73835,-1.49642 1.57909,-1.46706 l 6.0651,0.2118 c 0.40807,0.0143 0.7732098,0.18541 1.0379698,0.45417 z"/>
 </svg>
<svg id="icon-ico-time" viewBox="0 0 32 32">
<path d="M16 32c-8.837 0-16-7.163-16-16s7.163-16 16-16c8.837 0 16 7.163 16 16s-7.163 16-16 16zM16 4.94c-0.002 0-0.005 0-0.007 0-6.108 0-11.060 4.952-11.060 11.060s4.952 11.060 11.060 11.060c6.108 0 11.060-4.952 11.060-11.060 0-0.001 0-0.003 0-0.005 0-6.105-4.948-11.054-11.052-11.057zM14.794 16.51v-9.548h2.412v8.539l5.218 5.209-1.723 1.723z"></path>
</svg>
<svg id="icon-ico-timeshift" viewBox="0 0 32 32">
<path d="M31.18 6.984l-1.763 1.034c1.471 2.318 2.345 5.14 2.345 8.167 0 0.005 0 0.010 0 0.015 0 8.77-7.11 15.88-15.881 15.88s-15.881-7.11-15.881-15.881c0-8.725 6.172-15.799 14.949-15.799 0.018-0.001 0.040-0.001 0.061-0.001 1.027 0 1.86 0.833 1.86 1.86s-0.833 1.86-1.86 1.86c-0.021 0-0.043-0-0.064-0.001-6.81 0-11.419 5.294-11.419 12.082 0 6.823 5.531 12.354 12.354 12.354s12.354-5.531 12.354-12.354c0-0.009 0-0.020 0-0.031 0-2.369-0.679-4.58-1.853-6.448l-3.137 1.896c-0.206 0.188-0.482 0.304-0.784 0.304-0.643 0-1.164-0.521-1.164-1.164 0-0.085 0.009-0.168 0.026-0.247l0.059-9.17c-0.014-0.068-0.022-0.147-0.022-0.227 0-0.657 0.533-1.19 1.19-1.19 0.297 0 0.568 0.109 0.777 0.288l7.894 4.534c0.461 0.168 0.785 0.603 0.785 1.113 0 0.525-0.343 0.971-0.816 1.125zM20.58 22.708l-5.631-5.811v-9.066h2.625v7.943l4.849 5.010z"></path>
</svg>
<svg id="icon-ico-tv-disconnected" viewBox="0 0 45 32">
<path d="M36.267 29.867v2.133h-10.667v-6.4h14.933v-21.333h-34.133v2.133h-4.267v-6.4h42.667v29.867h-8.533zM3.84 12.817l5.76 5.749 5.76-5.749 3.819 3.84-5.739 5.76 5.739 5.76-3.819 3.84-5.76-5.749-5.76 5.749-3.819-3.84 5.739-5.76-5.739-5.76z"></path>
</svg>
<svg id="icon-ico-tv-linked" viewBox="0 0 43 32">
<path d="M34.133 29.867v2.133h-8.533v-6.4h12.8v-21.333h-34.133v2.133h-4.267v-6.4h42.667v29.867h-8.533zM2.837 26.308c1.563 0.002 2.829 1.27 2.829 2.833 0 1.565-1.268 2.833-2.833 2.833s-2.832-1.267-2.833-2.831c0-0 0-0 0-0 0-1.566 1.269-2.835 2.835-2.835 0.001 0 0.002 0 0.002 0zM0 22.003v-4.083c7.772 0.010 14.070 6.308 14.080 14.079l-4.096 0.001c0-0.003 0-0.007 0-0.011 0-5.514-4.47-9.985-9.984-9.986zM0 14.75v-4.083c11.778 0.011 21.322 9.556 21.333 21.332l-4.096 0.001c-0.006-9.519-7.719-17.234-17.236-17.244z"></path>
</svg>
<svg id="icon-ico-volume-0" viewBox="0 -1.5 32 32">
  <polygon
     points="0.35298579,8.7829973 6.9246435,8.7829973 17.949571,0.0519534 17.949571,28.738935 7.0405752,19.614998 0.3050577,19.614998 "
     transform="translate(0.069114,0)" />
  <path
     d="M 28.424621,22.303301 31.606601,19.12132 29.485281,17 26.3033,20.181981 23.12132,17 l -2.121321,2.12132 3.181981,3.181981 -3.181981,3.18198 2.121321,2.121321 3.18198,-3.181981 3.181981,3.181981 2.12132,-2.121321 -3.18198,-3.18198 z" />
</svg>
<svg id="icon-ico-volume-50" viewBox="-0.5 0 31 29">
  <polygon
     points="0.35298579,8.7829973 6.9246435,8.7829973 17.949571,0.0519534 17.949571,28.738935 7.0405752,19.614998 0.3050577,19.614998 "
     transform="translate(0.069114,0)" />
  <path
     d="m 21.069114,6.848639 c 3.423361,0.7142085 6,3.824912 6,7.554139 0,3.729227 -2.576639,6.83993 -6,7.554138 l 0,-15.108277 z" />
</svg>
<svg id="icon-ico-volume-100" viewBox="0 -0.5 30 30">
  <polygon
     points="0.35298579,8.7829973 6.9246435,8.7829973 17.949571,0.0519534 17.949571,28.738935 7.0405752,19.614998 0.3050577,19.614998 "
     transform="translate(0.069114,0)" />
  <path
     d="m 21.500001,9.2000122 c 2.28224,0.476139 4,2.5499418 4,5.0360928 0,2.486151 -1.71776,4.559953 -4,5.036092 l 0,-10.0721848 z" />
  <path
     d="m 21.069114,4.0022081 c 4.592011,1.1527156 8,5.4092648 8,10.4839029 0,5.074638 -3.407989,9.331187 -8,10.483903 l 0,-20.9678059 z" />
</svg>
<svg id="icon-ico-volume-handle" viewBox="0 0 46 32">
</svg>
</svg>
