<?xml version="1.0" encoding="utf-8"?>
<!-- Generated by IcoMoon.io -->
<!DOCTYPE svg PUBLIC "-//W3C//DTD SVG 1.1//EN" "http://www.w3.org/Graphics/SVG/1.1/DTD/svg11.dtd">
<svg version="1.1" xmlns="http://www.w3.org/2000/svg" xmlns:xlink="http://www.w3.org/1999/xlink" width="752" height="80" viewBox="0 0 752 80">
<svg id="icon-ico-arrow-down" viewBox="0 0 110 64">
<path d="M0.091 7.737c-0 0.028-0.001 0.061-0.001 0.094 0 2.155 0.869 4.106 2.277 5.523l47.151 48.161c1.311 1.364 3.151 2.212 5.188 2.212s3.878-0.848 5.186-2.21l47.245-48.164c1.382-1.452 2.232-3.42 2.232-5.588 0-2.12-0.814-4.051-2.146-5.496-1.307-1.448-3.197-2.358-5.301-2.358-2.029 0-3.86 0.847-5.16 2.206l-42.056 42.867-41.963-42.864c-1.316-1.361-3.159-2.207-5.199-2.207-2.123 0-4.033 0.916-5.355 2.373-1.303 1.388-2.1 3.253-2.1 5.304 0 0.051 0.001 0.102 0.002 0.153z"></path>
</svg>
<svg id="icon-ico-arrow-up" viewBox="0 0 110 64">
<path d="M0.091 55.972c-0-0.030-0.001-0.066-0.001-0.101 0-2.152 0.87-4.101 2.277-5.515l47.151-48.161c1.311-1.364 3.151-2.212 5.188-2.212s3.878 0.848 5.186 2.21l47.244 48.164c1.382 1.452 2.232 3.42 2.232 5.588 0 2.12-0.814 4.051-2.146 5.496-1.307 1.448-3.197 2.358-5.301 2.358-2.029 0-3.86-0.847-5.16-2.206l-42.056-42.867-41.963 42.864c-1.316 1.361-3.159 2.206-5.199 2.206-2.123 0-4.033-0.916-5.355-2.373-1.303-1.39-2.1-3.258-2.1-5.311 0-0.049 0-0.097 0.001-0.146z"></path>
</svg>
<svg id="icon-ico-close" viewBox="0 0 64 64">
<path d="M62.63 55.538l-23.595-23.645 23.595-23.65c0.912-0.891 1.477-2.133 1.477-3.507s-0.565-2.616-1.476-3.506c-0.904-0.865-2.131-1.397-3.483-1.397s-2.579 0.532-3.484 1.398l-23.639 23.648-23.595-23.655c-0.91-0.868-2.145-1.402-3.505-1.402s-2.595 0.534-3.507 1.404c-0.89 0.898-1.44 2.138-1.44 3.505s0.551 2.607 1.443 3.508l23.595 23.645-23.595 23.641c-0.879 0.906-1.421 2.143-1.421 3.507s0.542 2.601 1.422 3.508c0.908 0.869 2.143 1.405 3.504 1.405s2.596-0.536 3.507-1.408l23.593-23.644 23.641 23.645c0.901 0.943 2.169 1.529 3.573 1.529 2.728 0 4.939-2.211 4.939-4.939 0-1.414-0.594-2.689-1.546-3.589z"></path>
</svg>
<svg id="icon-ico-pause-big" viewBox="0 0 32 32">
  <!--path d="m 7.509,9.263 1.684,0 c 0.465,0 0.842,0.377 0.842,0.842 l 0,11.789 c 0,0.465 -0.377,0.842 -0.842,0.842 l -1.684,0 c -0.465,0 -0.842,-0.377 -0.842,-0.842 l 0,-11.789 c 0,-0.465 0.377,-0.842 0.842,-0.842 z m 7.298,0 1.684,0 c 0.465,0 0.842,0.377 0.842,0.842 l 0,11.789 c 0,0.465 -0.377,0.842 -0.842,0.842 l -1.684,0 c -0.465,0 -0.842,-0.377 -0.842,-0.842 l 0,-11.789 c 0,-0.465 0.377,-0.842 0.842,-0.842 z"/-->
  <path d="m 11.509,9.263 1.684,0 c 0.465,0 0.842,0.377 0.842,0.842 l 0,11.789 c 0,0.465 -0.377,0.842 -0.842,0.842 l -1.684,0 c -0.465,0 -0.842,-0.377 -0.842,-0.842 l 0,-11.789 c 0,-0.465 0.377,-0.842 0.842,-0.842 z m 7.298,0 1.684,0 c 0.465,0 0.842,0.377 0.842,0.842 l 0,11.789 c 0,0.465 -0.377,0.842 -0.842,0.842 l -1.684,0 c -0.465,0 -0.842,-0.377 -0.842,-0.842 l 0,-11.789 c 0,-0.465 0.377,-0.842 0.842,-0.842 z"/>
</svg>
<svg id="icon-ico-circle-big" viewBox="0 0 32 32">
  <!--path d="M 12,0 C 3.163,0 -4,7.163 -4,16 -4,24.837 3.163,32 12,32 20.837,32 28,24.837 28,16 28,7.163 20.837,0 12,0 Z"/-->
  <circle cx="16" cy="16" r="16" />
</svg>
<svg id="icon-ico-bullet" viewBox="0 0 24 24">
  <circle cx="12" cy="12" r="10" />
</svg>
<svg id="icon-ico-play-big" viewBox="0 0 32 32">
<!--path fill="#fff" d="M16 0c8.837 0 16 7.163 16 16s-7.163 16-16 16c-8.837 0-16-7.163-16-16s7.163-16 16-16zM13.814 9.557c-1.215-0.697-2.2-0.126-2.2 1.274v10.33c0 1.401 0.985 1.971 2.2 1.275l9.029-5.178c1.215-0.696 1.215-1.826 0-2.523z"></path-->
  <path d="m 13.814,9.557 c -1.215,-0.697 -2.2,-0.126 -2.2,1.274 l 0,10.33 c 0,1.401 0.985,1.971 2.2,1.275 l 9.029,-5.178 c 1.215,-0.696 1.215,-1.826 0,-2.523 z"/>
</svg>
<svg id="icon-ico-replay-big" viewBox="0 0 32 32">
<!--path fill="#fff" d="M16 0c-8.837 0-16 7.163-16 16s7.163 16 16 16c8.837 0 16-7.163 16-16s-7.163-16-16-16zM24.116 14.669l-4.62-1.235c-0.621-0.166-0.753-0.677-0.293-1.141l1.097-1.108c-1.143-1.075-2.687-1.735-4.385-1.735-0 0-0.001 0-0.001 0-3.591 0.034-6.489 2.954-6.489 6.55s2.898 6.515 6.486 6.55c1.549-0 2.967-0.548 4.074-1.461l0.032 0.051c0.097-0.055 0.213-0.088 0.337-0.088 0.254 0 0.477 0.138 0.596 0.343l0.182 0.139-0.005 0.005c0.127 0.125 0.206 0.3 0.206 0.492 0 0.124-0.033 0.24-0.090 0.341l0.058 0.053c-1.436 1.241-3.32 1.997-5.382 1.997-0.001 0-0.003 0-0.004 0-4.651 0-8.421-3.77-8.421-8.421s3.77-8.421 8.421-8.421c0.001 0 0.002 0 0.003 0 2.21 0 4.218 0.869 5.698 2.285l0.979-0.994c0.459-0.464 0.965-0.331 1.13 0.296l1.222 4.667c0.161 0.628-0.21 1.002-0.831 0.836z"></path-->
  <path d="m 24.116,14.669 -4.62,-1.235 C 18.875,13.268 18.743,12.757 19.203,12.293 L 20.3,11.185 C 19.157,10.11 17.613,9.45 15.915,9.45 l -10e-4,0 C 12.323,9.484 9.425,12.404 9.425,16 c 0,3.596 2.898,6.515 6.486,6.55 1.549,0 2.967,-0.548 4.074,-1.461 l 0.032,0.051 c 0.097,-0.055 0.213,-0.088 0.337,-0.088 0.254,0 0.477,0.138 0.596,0.343 l 0.182,0.139 -0.005,0.005 c 0.127,0.125 0.206,0.3 0.206,0.492 0,0.124 -0.033,0.24 -0.09,0.341 l 0.058,0.053 c -1.436,1.241 -3.32,1.997 -5.382,1.997 l -0.004,0 c -4.651,0 -8.421,-3.77 -8.421,-8.421 0,-4.651 3.77,-8.421 8.421,-8.421 l 0.003,0 c 2.21,0 4.218,0.869 5.698,2.285 l 0.979,-0.994 c 0.459,-0.464 0.965,-0.331 1.13,0.296 l 1.222,4.667 c 0.161,0.628 -0.21,1.002 -0.831,0.836 z"/>
</svg>
<svg id="icon-ico-error-general" viewBox="0 0 39 32">
<path fill="#e5e5e5" d="M39.37 13.382l-3.393 3.342-5.089-5.013-5.089 5.013-3.392-3.342 5.089-5.013-5.089-5.013 3.392-3.342 5.089 5.013 5.089-5.013 3.393 3.342-5.089 5.013zM29.342 32c-2.679-1.998-6.055-3.2-9.712-3.2-3.613 0-6.952 1.172-9.657 3.158l-3.876-3.413c3.755-2.764 8.472-4.423 13.577-4.423 5.128 0 9.866 1.675 13.695 4.508zM13.588 16.725l-5.088-5.013-5.089 5.013-3.393-3.342 5.089-5.013-5.089-5.013 3.393-3.342 5.089 5.013 5.088-5.013 3.393 3.342-5.092 5.012 5.089 5.013z"></path>
</svg>
<svg id="icon-ico-error-network" viewBox="0 0 45 32">
<path d="M42.39 11.464l-1.094-1.094-2.051 2.051c-4.552-3.936-10.528-6.333-17.065-6.333-7.069 0-13.482 2.804-18.19 7.36l-3.991-4.284c5.705-5.669 13.567-9.172 22.248-9.172 8.694 0 16.566 3.514 22.275 9.2zM29.753 13.060l-4.775 4.775c-0.849-0.177-1.825-0.278-2.825-0.278-4.025 0-7.665 1.643-10.288 4.295l-3.955-4.228c3.603-3.748 8.658-6.077 14.258-6.077 2.737 0 5.345 0.556 7.715 1.562zM21.927 22.563c2.014 0.040 3.86 0.732 5.342 1.873l-3.68 3.643 1.034 1.032-2.695 2.888-6.298-6.738c1.625-1.606 3.836-2.622 6.284-2.699zM32.442 16.274l4.427 4.427 4.427-4.427 2.951 2.951-4.427 4.427 4.427 4.427-2.951 2.951-4.427-4.427-4.427 4.427-2.951-2.951 4.427-4.427-4.427-4.427z"></path>
</svg>
<svg id="icon-ico-fullscreen" viewBox="0 0 32 32">
<path d="M27.58 32h-8.26v-3.036h7.5l-8.26-8.25 2.16-2.148 8.24 8.254v-7.51h3.040v8.276c-0.005 2.438-1.981 4.413-4.42 4.414zM28.96 5.182l-8.24 8.254-2.16-2.144 8.26-8.258h-7.5v-3.034h8.26c0 0 0 0 0 0 2.439 0 4.417 1.975 4.42 4.414v8.274h-3.040v-7.506zM12.68 28.964v3.036h-8.26c-2.439-0.001-4.415-1.976-4.42-4.414v-8.276h3.040v7.51l8.24-8.254 2.16 2.148-8.26 8.25h7.5zM11.28 13.436l-8.24-8.254v7.506h-3.040v-8.274c0.003-2.439 1.981-4.414 4.42-4.414 0 0 0 0 0 0h8.26v3.034h-7.5l8.26 8.258z"></path>
</svg>
<svg id="icon-ico-help" viewBox="0 0 20 32">
<path d="M20.3 7.452c0-4.825-4.154-7.452-10.125-7.452-0.16-0.004-0.348-0.005-0.537-0.005-3.271 0-6.403 0.598-9.292 1.69-0.010 2.52-0.154 5.099-0.345 7.533 1.529 0.239 3.248 0.43 4.918 0.573l1.147-3.915c0.023-0.224 0.15-0.415 0.331-0.524 0.544-0.364 1.21-0.58 1.926-0.58 0.063 0 0.126 0.002 0.188 0.005 1.694 0.039 3.060 1.428 3.060 3.137 0 0.093-0.004 0.185-0.012 0.276 0.001 3.33-2.149 5.098-7.117 8.537 0.213 2.026 0.88 3.861 1.899 5.45 1.79-0.132 3.503-0.475 5.11-1.043q-0.268-1.831-0.268-2.828c0.091-0.415 0.378-0.748 0.756-0.903 5.207-2.693 8.36-5.32 8.36-9.952zM8.838 24.598c-0.049-0.002-0.105-0.003-0.163-0.003-2.153 0-3.903 1.724-3.945 3.867 0.247 2.006 1.938 3.54 3.986 3.54 2.065 0 3.766-1.56 3.99-3.565 0.004-0.072 0.006-0.134 0.006-0.198 0-2.014-1.633-3.647-3.647-3.647-0.080 0-0.159 0.003-0.237 0.008z"></path>
</svg>
<svg id="icon-ico-info" viewBox="0 0 15 32">
<path d="M11.643 15.2c0.291-0.633 0.507-1.366 0.611-2.136-0.095-1.204-1.021-2.123-2.178-2.213-3.932 0.65-7.282 2.719-9.583 5.65-0.046 0.107-0.058 0.192-0.058 0.28 0 0.471 0.341 0.862 0.79 0.939 1.2-1.167 2.612-2.118 4.175-2.784 0.31-0.034 0.31 0.264 0.187 0.658l-4.972 12.308c-0.309 0.619-0.519 1.339-0.589 2.101 0.231 1.086 1.116 1.887 2.203 1.992 4.152-0.491 7.703-2.68 10-5.838 0.049-0.115 0.061-0.199 0.061-0.285 0-0.512-0.408-0.929-0.917-0.942-1.264 1.278-2.757 2.326-4.413 3.076-0.437 0.038-0.487-0.26-0.29-0.701zM8.345 4.123c-0.002 0.040-0.003 0.087-0.003 0.135 0 1.483 1.202 2.686 2.686 2.686 0.052 0 0.104-0.002 0.156-0.004 2.008-0.053 3.622-1.699 3.622-3.723 0-0.098-0.004-0.196-0.011-0.292 0.017-0.095 0.026-0.219 0.026-0.345 0-1.415-1.147-2.562-2.562-2.562-0.043 0-0.085 0.001-0.127 0.003-2.106 0.079-3.789 1.811-3.789 3.936 0 0.061 0.001 0.121 0.004 0.181z"></path>
</svg>
<svg id="icon-ico-pause" viewBox="0 0 25 32">
<path d="M23.333 32h-4c-1.105 0-2-0.895-2-2v-28c0-1.105 0.895-2 2-2h4c1.105 0 2 0.895 2 2v28c0 1.105-0.895 2-2 2zM6 32h-4c-1.105 0-2-0.895-2-2v-28c0-1.105 0.895-2 2-2h4c1.105 0 2 0.895 2 2v28c0 1.105-0.895 2-2 2z"></path>
</svg>
<svg id="icon-ico-play" viewBox="0 0 29 32">
<path d="M5.221 0.718c-2.883-1.654-5.22-0.299-5.22 3.023v24.517c0 3.325 2.337 4.678 5.22 3.025l21.431-12.29c2.884-1.653 2.884-4.335 0-5.988z"></path>
</svg>
<svg id="icon-ico-pop" viewBox="0 0 32 32">
<path d="M28.96 12.688v-7.506l-8.249 8.254-2.151-2.146 8.267-8.258h-7.52v-3.033h8.284c2.436 0.003 4.409 1.978 4.409 4.414 0 0 0 0 0 0v8.274h-3.040zM2.667 11.556v14.222c0 1.964 1.592 3.556 3.556 3.556h14.222c1.964 0 3.556-1.592 3.556-3.556v-9.778h2.667v11.556c0 2.455-1.99 4.444-4.444 4.444h-17.778c-2.455 0-4.444-1.99-4.444-4.444v-17.778c0-2.455 1.99-4.444 4.444-4.444h11.556v2.667h-9.778c-1.964 0-3.556 1.592-3.556 3.556z"></path>
</svg>
<svg id="icon-ico-replay" viewBox="0 0 33 32">
<path d="M31.421 13.47l-8.777-2.347c-1.181-0.315-1.43-1.286-0.557-2.168l2.085-2.106c-2.172-2.042-5.105-3.297-8.331-3.297-0.001 0-0.001 0-0.002 0-6.823 0.065-12.329 5.612-12.329 12.444s5.506 12.379 12.323 12.444c2.944-0.001 5.638-1.042 7.74-2.775l0.061 0.098c0.184-0.105 0.405-0.166 0.64-0.166 0.484 0 0.906 0.262 1.134 0.651l0.346 0.263-0.010 0.010c0.241 0.238 0.39 0.569 0.39 0.935 0 0.235-0.062 0.456-0.17 0.648l0.11 0.1c-2.727 2.359-6.309 3.796-10.226 3.796-0.003 0-0.005 0-0.008 0-8.836 0-16-7.163-16-16s7.163-16 16-16c0.002 0 0.004 0 0.006 0 4.2 0 8.013 1.652 10.827 4.341l1.861-1.889c0.873-0.882 1.834-0.629 2.146 0.563l2.321 8.867c0.306 1.193-0.398 1.905-1.58 1.588z"></path>
</svg>
<svg id="icon-ico-settings" viewBox="0 0 32 32">
<path d="M27.609 12.327l-0.8-1.956c0.588-1.228 1.168-2.72 1.642-4.258l-2.424-2.723c-1.747 0.58-3.204 1.191-4.607 1.895l-1.775-0.897c-0.646-1.746-1.305-3.193-2.051-4.587l-3.424 0.196c-0.634 1.211-1.259 2.666-1.779 4.169l-2.026 1.042c-1.215-0.578-2.705-1.16-4.239-1.643l-2.748 2.419c0.576 1.743 1.19 3.204 1.9 4.607l-0.905 1.766c-1.743 0.644-3.191 1.302-4.584 2.050l0.193 3.422c1.21 0.631 2.667 1.255 4.172 1.776l1.037 2.027c-0.589 1.228-1.168 2.719-1.642 4.256l2.425 2.731c1.751-0.587 3.208-1.199 4.612-1.902l1.77 0.903c0.646 1.744 1.305 3.191 2.051 4.583l3.424-0.195c0.634-1.211 1.259-2.666 1.779-4.169l2.026-1.044c1.213 0.578 2.703 1.161 4.237 1.646l2.75-2.418c-0.576-1.742-1.189-3.202-1.9-4.605l0.904-1.767c1.741-0.646 3.189-1.308 4.581-2.060l-0.19-3.421c-1.209-0.628-2.666-1.251-4.171-1.77zM21.138 16c0 0.003 0 0.007 0 0.011 0 2.838-2.3 5.138-5.138 5.138s-5.138-2.3-5.138-5.138c0-2.838 2.3-5.138 5.138-5.138 2.832 0.004 5.128 2.296 5.138 5.126z"></path>
</svg>
<svg id="icon-ico-skip" viewBox="0 0 38 32">
<path d="M34.909 32c-1.607 0-2.909-1.302-2.909-2.909v-26.182c0-1.607 1.302-2.909 2.909-2.909s2.909 1.302 2.909 2.909v26.182c0 1.607-1.302 2.909-2.909 2.909zM24.204 18.996l-19.465 12.291c-2.618 1.652-4.739 0.291-4.739-3.025v-24.521c0-3.322 2.124-4.678 4.739-3.023l19.465 12.291c1.165 0.516 1.963 1.661 1.963 2.993s-0.798 2.478-1.942 2.985z"></path>
</svg>
<svg id="icon-ico-smallscreen" viewBox="0 0 32 32">
<path d="M31.247 10.336v3.012h-8.207c-0.001 0-0.001 0-0.002 0-2.421 0-4.384-1.963-4.384-4.384 0 0 0 0 0 0v-8.211h3.012v7.458l8.188-8.198 2.146 2.133-8.207 8.194h7.454zM10.334 23.793l-8.188 8.207-2.146-2.131 8.207-8.201h-7.454v-3.012h8.207c0.001 0 0.002 0 0.004 0 2.42 0 4.382 1.962 4.382 4.382 0 0 0 0 0 0v8.209h-3.012v-7.454zM8.96 13.352h-8.207v-3.012h7.454l-8.207-8.194 2.146-2.133 8.188 8.198v-7.458h3.012v8.218c-0.002 2.42-1.964 4.38-4.384 4.38-0.001 0-0.001 0-0.002 0zM23.040 18.648h8.207v3.012h-7.454l8.207 8.201-2.146 2.138-8.188-8.2v7.447h-3.012v-8.218c0.001-2.419 1.963-4.38 4.382-4.38 0.001 0 0.003 0 0.004 0z"></path>
</svg>
<svg id="icon-ico-time" viewBox="0 0 32 32">
<path d="M16 32c-8.837 0-16-7.163-16-16s7.163-16 16-16c8.837 0 16 7.163 16 16s-7.163 16-16 16zM16 4.94c-0.002 0-0.005 0-0.007 0-6.108 0-11.060 4.952-11.060 11.060s4.952 11.060 11.060 11.060c6.108 0 11.060-4.952 11.060-11.060 0-0.001 0-0.003 0-0.005 0-6.105-4.948-11.054-11.052-11.057zM14.794 16.51v-9.548h2.412v8.539l5.218 5.209-1.723 1.723z"></path>
</svg>
<svg id="icon-ico-timeshift" viewBox="0 0 32 32">
<path d="M31.18 6.984l-1.763 1.034c1.471 2.318 2.345 5.14 2.345 8.167 0 0.005 0 0.010 0 0.015 0 8.77-7.11 15.88-15.881 15.88s-15.881-7.11-15.881-15.881c0-8.725 6.172-15.799 14.949-15.799 0.018-0.001 0.040-0.001 0.061-0.001 1.027 0 1.86 0.833 1.86 1.86s-0.833 1.86-1.86 1.86c-0.021 0-0.043-0-0.064-0.001-6.81 0-11.419 5.294-11.419 12.082 0 6.823 5.531 12.354 12.354 12.354s12.354-5.531 12.354-12.354c0-0.009 0-0.020 0-0.031 0-2.369-0.679-4.58-1.853-6.448l-3.137 1.896c-0.206 0.188-0.482 0.304-0.784 0.304-0.643 0-1.164-0.521-1.164-1.164 0-0.085 0.009-0.168 0.026-0.247l0.059-9.17c-0.014-0.068-0.022-0.147-0.022-0.227 0-0.657 0.533-1.19 1.19-1.19 0.297 0 0.568 0.109 0.777 0.288l7.894 4.534c0.461 0.168 0.785 0.603 0.785 1.113 0 0.525-0.343 0.971-0.816 1.125zM20.58 22.708l-5.631-5.811v-9.066h2.625v7.943l4.849 5.010z"></path>
</svg>
<svg id="icon-ico-tv-disconnected" viewBox="0 0 45 32">
<path d="M36.267 29.867v2.133h-10.667v-6.4h14.933v-21.333h-34.133v2.133h-4.267v-6.4h42.667v29.867h-8.533zM3.84 12.817l5.76 5.749 5.76-5.749 3.819 3.84-5.739 5.76 5.739 5.76-3.819 3.84-5.76-5.749-5.76 5.749-3.819-3.84 5.739-5.76-5.739-5.76z"></path>
</svg>
<svg id="icon-ico-tv-linked" viewBox="0 0 43 32">
<path d="M34.133 29.867v2.133h-8.533v-6.4h12.8v-21.333h-34.133v2.133h-4.267v-6.4h42.667v29.867h-8.533zM2.837 26.308c1.563 0.002 2.829 1.27 2.829 2.833 0 1.565-1.268 2.833-2.833 2.833s-2.832-1.267-2.833-2.831c0-0 0-0 0-0 0-1.566 1.269-2.835 2.835-2.835 0.001 0 0.002 0 0.002 0zM0 22.003v-4.083c7.772 0.010 14.070 6.308 14.080 14.079l-4.096 0.001c0-0.003 0-0.007 0-0.011 0-5.514-4.47-9.985-9.984-9.986zM0 14.75v-4.083c11.778 0.011 21.322 9.556 21.333 21.332l-4.096 0.001c-0.006-9.519-7.719-17.234-17.236-17.244z"></path>
</svg>
<svg id="icon-ico-volume-0" viewBox="0 0 41 32">
<path d="M36.609 16.036l4.073 4.068c0.371 0.407 0.599 0.951 0.599 1.548 0 1.271-1.030 2.301-2.301 2.301-0.594 0-1.136-0.225-1.544-0.595l-4.071-4.066-4.073 4.068c-0.406 0.368-0.948 0.593-1.542 0.593-1.271 0-2.301-1.030-2.301-2.301 0-0.597 0.227-1.141 0.6-1.55l4.071-4.066-4.073-4.066c-0.365-0.405-0.588-0.945-0.588-1.536 0-1.271 1.030-2.301 2.301-2.301 0.589 0 1.126 0.221 1.533 0.585l4.071 4.064 4.073-4.066c0.405-0.362 0.942-0.583 1.531-0.583 1.271 0 2.301 1.030 2.301 2.301 0 0.591-0.223 1.13-0.59 1.538zM17.211 31.572l-7.869-5.891h-7.179c-0.001 0-0.002 0-0.002 0-1.191 0-2.157-0.963-2.161-2.153v-15.017c0.004-1.19 0.97-2.154 2.161-2.154 0.001 0 0.002 0 0.002 0h7.179l7.869-5.891c0.357-0.273 0.809-0.437 1.3-0.437 1.188 0 2.151 0.963 2.151 2.151 0 0.003 0 0.006-0 0.010v27.651c0 0.006 0 0.012 0 0.019 0 1.187-0.962 2.149-2.149 2.149-0.492 0-0.945-0.165-1.308-0.443z"></path>
</svg>
<svg id="icon-ico-volume-50" viewBox="0 0 41 32">
<path d="M27.727 27.978c-0.441 0.462-1.061 0.751-1.748 0.755-0.007 0-0.015 0-0.023 0-0.682 0-1.3-0.274-1.749-0.718-0.451-0.457-0.729-1.084-0.729-1.777s0.278-1.321 0.729-1.778c2.164-2.165 3.502-5.155 3.502-8.458s-1.338-6.293-3.502-8.459c-0.426-0.45-0.688-1.060-0.688-1.731 0-1.392 1.128-2.52 2.52-2.52 0.673 0 1.284 0.264 1.736 0.694 3.076 3.057 4.981 7.293 4.981 11.973 0 4.703-1.923 8.956-5.026 12.017zM17.211 31.57l-7.869-5.891h-7.179c-0.001 0-0.002 0-0.002 0-1.191 0-2.157-0.963-2.161-2.153v-15.014c0.004-1.19 0.97-2.154 2.161-2.154 0.001 0 0.002 0 0.002 0h7.179l7.869-5.891c0.357-0.273 0.809-0.437 1.3-0.437 1.188 0 2.151 0.963 2.151 2.151 0 0.003 0 0.006-0 0.010v27.651c0 0.006 0 0.012 0 0.019 0 1.187-0.962 2.149-2.149 2.149-0.492 0-0.945-0.165-1.308-0.443z"></path>
</svg>
<svg id="icon-ico-volume-100" viewBox="0 0 36 32">
<path d="M29.698 31.373c-0.399 0.386-0.943 0.625-1.543 0.627-0.599-0.004-1.139-0.255-1.523-0.657-0.4-0.395-0.647-0.943-0.647-1.549s0.247-1.153 0.646-1.548c3.145-3.147 5.090-7.493 5.090-12.293s-1.945-9.146-5.090-12.293c-0.399-0.395-0.647-0.942-0.647-1.548s0.247-1.153 0.646-1.548c0.388-0.389 0.925-0.629 1.518-0.629 0.608 0 1.158 0.253 1.548 0.66 3.938 3.939 6.373 9.38 6.373 15.389s-2.435 11.449-6.372 15.388zM24.147 26.363c-0.384 0.403-0.924 0.654-1.522 0.657-0.006 0-0.013 0-0.020 0-0.594 0-1.132-0.239-1.524-0.626-0.392-0.398-0.635-0.944-0.635-1.548s0.242-1.15 0.635-1.548c1.884-1.885 3.050-4.49 3.050-7.366s-1.166-5.481-3.050-7.366c-0.371-0.392-0.599-0.923-0.599-1.507 0-1.212 0.982-2.194 2.194-2.194 0.586 0 1.119 0.23 1.512 0.604 2.681 2.663 4.34 6.352 4.34 10.43 0 4.097-1.676 7.803-4.38 10.468zM14.989 29.491l-6.853-5.13h-6.252c-0.001 0-0.001 0-0.002 0-1.037 0-1.878-0.839-1.882-1.875v-13.070c0.003-1.037 0.845-1.876 1.882-1.876 0.001 0 0.001 0 0.002 0h6.252l6.853-5.13c0.311-0.238 0.705-0.381 1.132-0.381 1.035 0 1.874 0.839 1.874 1.874 0 0.003 0 0.006-0 0.009v24.080c0 0.005 0 0.010 0 0.016 0 1.034-0.838 1.872-1.872 1.872-0.428 0-0.823-0.144-1.139-0.386z"></path>
</svg>
<svg id="icon-ico-volume-handle" viewBox="0 0 46 32">
<path opacity="0.43" fill="#0e111d" d="M0 32v-4.571h45.714v4.571h-45.714zM0 13.714h45.714v4.571h-45.714v-4.571zM0 0h45.714v4.571h-45.714v-4.571z"></path>
</svg>
<svg id="icon-ico-after-timeshift-1" viewBox="0 0 329 82">
<path d="M0 0 l 326 0 a 3 3 ,0,0,1,3 3 l 0 76 a 3 3 ,0,0,1,-3 3 l -326 0 a 62 62, 0, 0, 0, 0 -82" />
<text x="29" y="23" fill="white">V čase kde jste živé vysílání pozastavili,</text>
<text x="29" y="41" fill="white">už nelze přehrávání znovu spustit.</text>
<text x="29" y="69" fill="white">Načítáme aktuální živé vysílání...</text>
</svg>
<svg id="icon-ico-after-timeshift-2" viewBox="0 0 332 82">
<path d="M0 0 l 329 0 a 3 3 ,0,0,1,3 3 l 0 76 a 3 3 ,0,0,1,-3 3 l -329 0 a 53 53, 0, 0, 0, 0 -82" />
<text x="32" y="23" fill="white">V čase kde jste živé vysílání pozastavili,</text>
<text x="32" y="41" fill="white">už nelze přehrávání znovu spustit.</text>
<text x="32" y="69" fill="white">Načítáme aktuální živé vysílání...</text>
</svg>
<svg id="icon-ico-after-timeshift-3" viewBox="0 0 284 76">
<path d="M0 0 l 281 0 a 3 3 ,0,0,1,3 3 l 0 70 a 3 3 ,0,0,1,-3 3 l -281 0 a 42 42, 0, 0, 0, 0 -76" />
<text x="35" y="20" fill="white">Pozastavené vysílání už nelze</text>
<text x="35" y="38" fill="white">znovu spustit.</text>
<text x="35" y="66" fill="white">Načítáme aktuální živé vysílání...</text>
</svg>
<svg id="icon-ico-after-timeshift-4" viewBox="0 0 190 85">
<rect x="5" y="0" width="190" height="85" rx="3" ry="3"/>
<text x="18" y="21" fill="white">Pozastavené vysílání</text>
<text x="18" y="39" fill="white">už nelze znovu spustit.</text>
<text x="18" y="57" fill="white">Načítáme aktuální</text>
<text x="18" y="75" fill="white">živé vysílání...</text>
</svg>
</svg>
